<svg xmlns="http://www.w3.org/2000/svg" xmlns:xlink="http://www.w3.org/1999/xlink" width="1080" zoomAndPan="magnify" viewBox="0 0 810 809.999993" height="1080" preserveAspectRatio="xMidYMid meet" version="1.0"><defs><filter x="0%" y="0%" width="100%" height="100%" id="id1"><feColorMatrix values="0 0 0 0 1 0 0 0 0 1 0 0 0 0 1 0 0 0 1 0" color-interpolation-filters="sRGB"/></filter><g/><mask id="id2"><g filter="url(#id1)"><rect x="-81" width="972" fill="#000000" y="-80.999999" height="971.999992" fill-opacity="0.1569"/></g></mask><clipPath id="id3"><path d="M 7.1875 0.1875 L 460.9375 0.1875 L 460.9375 24 L 7.1875 24 Z M 7.1875 0.1875 " clip-rule="nonzero"/></clipPath><clipPath id="id4"><path d="M 7.1875 25 L 460.9375 25 L 460.9375 49 L 7.1875 49 Z M 7.1875 25 " clip-rule="nonzero"/></clipPath><clipPath id="id5"><path d="M 7.1875 51 L 460.9375 51 L 460.9375 75 L 7.1875 75 Z M 7.1875 51 " clip-rule="nonzero"/></clipPath><clipPath id="id6"><path d="M 7.1875 76 L 460.9375 76 L 460.9375 100 L 7.1875 100 Z M 7.1875 76 " clip-rule="nonzero"/></clipPath><clipPath id="id7"><path d="M 7.1875 102 L 460.9375 102 L 460.9375 126 L 7.1875 126 Z M 7.1875 102 " clip-rule="nonzero"/></clipPath><clipPath id="id8"><path d="M 7.1875 127 L 460.9375 127 L 460.9375 151 L 7.1875 151 Z M 7.1875 127 " clip-rule="nonzero"/></clipPath><clipPath id="id9"><path d="M 7.1875 152 L 460.9375 152 L 460.9375 177 L 7.1875 177 Z M 7.1875 152 " clip-rule="nonzero"/></clipPath><clipPath id="id10"><path d="M 7.1875 178 L 460.9375 178 L 460.9375 202 L 7.1875 202 Z M 7.1875 178 " clip-rule="nonzero"/></clipPath><clipPath id="id11"><path d="M 7.1875 203 L 460.9375 203 L 460.9375 228 L 7.1875 228 Z M 7.1875 203 " clip-rule="nonzero"/></clipPath><clipPath id="id12"><path d="M 7.1875 229 L 460.9375 229 L 460.9375 253 L 7.1875 253 Z M 7.1875 229 " clip-rule="nonzero"/></clipPath><clipPath id="id13"><path d="M 7.1875 254 L 460.9375 254 L 460.9375 278 L 7.1875 278 Z M 7.1875 254 " clip-rule="nonzero"/></clipPath><clipPath id="id14"><path d="M 7.1875 280 L 460.9375 280 L 460.9375 304 L 7.1875 304 Z M 7.1875 280 " clip-rule="nonzero"/></clipPath><clipPath id="id15"><path d="M 7.1875 305 L 460.9375 305 L 460.9375 329 L 7.1875 329 Z M 7.1875 305 " clip-rule="nonzero"/></clipPath><clipPath id="id16"><path d="M 7.1875 331 L 460.9375 331 L 460.9375 355 L 7.1875 355 Z M 7.1875 331 " clip-rule="nonzero"/></clipPath><clipPath id="id17"><path d="M 7.1875 356 L 460.9375 356 L 460.9375 380 L 7.1875 380 Z M 7.1875 356 " clip-rule="nonzero"/></clipPath><clipPath id="id18"><path d="M 7.1875 382 L 460.9375 382 L 460.9375 406 L 7.1875 406 Z M 7.1875 382 " clip-rule="nonzero"/></clipPath><clipPath id="id19"><path d="M 7.1875 407 L 460.9375 407 L 460.9375 431 L 7.1875 431 Z M 7.1875 407 " clip-rule="nonzero"/></clipPath><clipPath id="id20"><path d="M 7.1875 433 L 460.9375 433 L 460.9375 456.1875 L 7.1875 456.1875 Z M 7.1875 433 " clip-rule="nonzero"/></clipPath><clipPath id="id21"><rect x="0" width="469" y="0" height="457"/></clipPath><clipPath id="id22"><path d="M 235.964844 235.964844 L 582.464844 235.964844 L 582.464844 582.464844 L 235.964844 582.464844 Z M 235.964844 235.964844 " clip-rule="nonzero"/></clipPath><clipPath id="id23"><path d="M 291.09375 346.648438 L 527.34375 346.648438 L 527.34375 497.398438 L 291.09375 497.398438 Z M 291.09375 346.648438 " clip-rule="nonzero"/></clipPath><clipPath id="id24"><path d="M 351 511 L 367 511 L 367 528 L 351 528 Z M 351 511 " clip-rule="nonzero"/></clipPath><clipPath id="id25"><path d="M 354.535156 508.625 L 368.886719 515.121094 L 361.769531 530.835938 L 347.421875 524.339844 Z M 354.535156 508.625 " clip-rule="nonzero"/></clipPath><clipPath id="id26"><path d="M 354.535156 508.625 L 368.886719 515.121094 L 361.769531 530.835938 L 347.421875 524.339844 Z M 354.535156 508.625 " clip-rule="nonzero"/></clipPath><clipPath id="id27"><path d="M 354.535156 508.625 L 368.886719 515.121094 L 361.769531 530.835938 L 347.421875 524.339844 Z M 354.535156 508.625 " clip-rule="nonzero"/></clipPath><clipPath id="id28"><path d="M 454 512 L 471 512 L 471 529 L 454 529 Z M 454 512 " clip-rule="nonzero"/></clipPath><clipPath id="id29"><path d="M 453.6875 512.609375 L 469.214844 509.972656 L 472.101562 526.980469 L 456.574219 529.617188 Z M 453.6875 512.609375 " clip-rule="nonzero"/></clipPath><clipPath id="id30"><path d="M 453.6875 512.609375 L 469.214844 509.972656 L 472.101562 526.980469 L 456.574219 529.617188 Z M 453.6875 512.609375 " clip-rule="nonzero"/></clipPath><clipPath id="id31"><path d="M 453.6875 512.609375 L 469.214844 509.972656 L 472.101562 526.980469 L 456.574219 529.617188 Z M 453.6875 512.609375 " clip-rule="nonzero"/></clipPath></defs><rect x="-81" width="972" fill="#ffffff" y="-80.999999" height="971.999992" fill-opacity="1"/><rect x="-81" width="972" fill="#ffffff" y="-80.999999" height="971.999992" fill-opacity="1"/><rect x="-81" width="972" fill="#ffde59" y="-80.999999" height="971.999992" fill-opacity="1"/><g mask="url(#id2)"><g transform="matrix(1, 0, 0, 1, 170, 177)"><g clip-path="url(#id21)"><g clip-path="url(#id3)"><path fill="#ffffff" d="M 420.183594 23.3125 L 373.613281 3.726562 L 327.046875 23.3125 L 280.476562 3.726562 L 233.910156 23.3125 L 187.339844 3.726562 L 140.773438 23.3125 L 94.203125 3.726562 L 47.640625 23.3125 L 0.441406 3.464844 L 1.707031 0.457031 L 47.640625 19.773438 L 94.203125 0.1875 L 140.773438 19.773438 L 187.339844 0.1875 L 233.910156 19.773438 L 280.476562 0.1875 L 327.046875 19.773438 L 373.613281 0.1875 L 420.183594 19.773438 L 466.125 0.457031 L 467.390625 3.464844 Z M 420.183594 23.3125 " fill-opacity="1" fill-rule="nonzero"/></g><g clip-path="url(#id4)"><path fill="#ffffff" d="M 420.183594 48.777344 L 373.613281 29.191406 L 327.046875 48.777344 L 280.476562 29.191406 L 233.910156 48.777344 L 187.339844 29.191406 L 140.773438 48.777344 L 94.203125 29.191406 L 47.640625 48.777344 L 0.441406 28.929688 L 1.707031 25.917969 L 47.640625 45.238281 L 94.203125 25.652344 L 140.773438 45.238281 L 187.339844 25.652344 L 233.910156 45.238281 L 280.476562 25.652344 L 327.046875 45.238281 L 373.613281 25.652344 L 420.183594 45.238281 L 466.125 25.917969 L 467.390625 28.929688 Z M 420.183594 48.777344 " fill-opacity="1" fill-rule="nonzero"/></g><g clip-path="url(#id5)"><path fill="#ffffff" d="M 420.183594 74.242188 L 373.613281 54.652344 L 327.046875 74.242188 L 280.476562 54.652344 L 233.910156 74.242188 L 187.339844 54.652344 L 140.773438 74.242188 L 94.203125 54.652344 L 47.640625 74.242188 L 0.441406 54.394531 L 1.707031 51.382812 L 47.640625 70.703125 L 94.203125 51.117188 L 140.773438 70.703125 L 187.339844 51.117188 L 233.910156 70.703125 L 280.476562 51.117188 L 327.046875 70.703125 L 373.613281 51.117188 L 420.183594 70.703125 L 466.125 51.382812 L 467.390625 54.394531 Z M 420.183594 74.242188 " fill-opacity="1" fill-rule="nonzero"/></g><g clip-path="url(#id6)"><path fill="#ffffff" d="M 420.183594 99.707031 L 373.613281 80.117188 L 327.046875 99.707031 L 280.476562 80.117188 L 233.910156 99.707031 L 187.339844 80.117188 L 140.773438 99.707031 L 94.203125 80.117188 L 47.640625 99.707031 L 0.441406 79.855469 L 1.707031 76.847656 L 47.640625 96.167969 L 94.203125 76.578125 L 140.773438 96.167969 L 187.339844 76.578125 L 233.910156 96.167969 L 280.476562 76.578125 L 327.046875 96.167969 L 373.613281 76.578125 L 420.183594 96.167969 L 466.125 76.847656 L 467.390625 79.855469 Z M 420.183594 99.707031 " fill-opacity="1" fill-rule="nonzero"/></g><g clip-path="url(#id7)"><path fill="#ffffff" d="M 420.183594 125.167969 L 373.613281 105.582031 L 327.046875 125.167969 L 280.476562 105.582031 L 233.910156 125.167969 L 187.339844 105.582031 L 140.773438 125.167969 L 94.203125 105.582031 L 47.640625 125.167969 L 0.441406 105.320312 L 1.707031 102.3125 L 47.640625 121.628906 L 94.203125 102.042969 L 140.773438 121.628906 L 187.339844 102.042969 L 233.910156 121.628906 L 280.476562 102.042969 L 327.046875 121.628906 L 373.613281 102.042969 L 420.183594 121.628906 L 466.125 102.3125 L 467.390625 105.320312 Z M 420.183594 125.167969 " fill-opacity="1" fill-rule="nonzero"/></g><g clip-path="url(#id8)"><path fill="#ffffff" d="M 420.183594 150.632812 L 373.613281 131.046875 L 327.046875 150.632812 L 280.476562 131.046875 L 233.910156 150.632812 L 187.339844 131.046875 L 140.773438 150.632812 L 94.203125 131.046875 L 47.640625 150.632812 L 0.441406 130.785156 L 1.707031 127.773438 L 47.640625 147.09375 L 94.203125 127.507812 L 140.773438 147.09375 L 187.339844 127.507812 L 233.910156 147.09375 L 280.476562 127.507812 L 327.046875 147.09375 L 373.613281 127.507812 L 420.183594 147.09375 L 466.125 127.773438 L 467.390625 130.785156 Z M 420.183594 150.632812 " fill-opacity="1" fill-rule="nonzero"/></g><g clip-path="url(#id9)"><path fill="#ffffff" d="M 420.183594 176.097656 L 373.613281 156.511719 L 327.046875 176.097656 L 280.476562 156.511719 L 233.910156 176.097656 L 187.339844 156.511719 L 140.773438 176.097656 L 94.203125 156.511719 L 47.640625 176.097656 L 0.441406 156.25 L 1.707031 153.238281 L 47.640625 172.558594 L 94.203125 152.972656 L 140.773438 172.558594 L 187.339844 152.972656 L 233.910156 172.558594 L 280.476562 152.972656 L 327.046875 172.558594 L 373.613281 152.972656 L 420.183594 172.558594 L 466.125 153.238281 L 467.390625 156.25 Z M 420.183594 176.097656 " fill-opacity="1" fill-rule="nonzero"/></g><g clip-path="url(#id10)"><path fill="#ffffff" d="M 420.183594 201.5625 L 373.613281 181.972656 L 327.046875 201.5625 L 280.476562 181.972656 L 233.910156 201.5625 L 187.339844 181.972656 L 140.773438 201.5625 L 94.203125 181.972656 L 47.640625 201.5625 L 0.441406 181.710938 L 1.707031 178.703125 L 47.640625 198.023438 L 94.203125 178.433594 L 140.773438 198.023438 L 187.339844 178.433594 L 233.910156 198.023438 L 280.476562 178.433594 L 327.046875 198.023438 L 373.613281 178.433594 L 420.183594 198.023438 L 466.125 178.703125 L 467.390625 181.710938 Z M 420.183594 201.5625 " fill-opacity="1" fill-rule="nonzero"/></g><g clip-path="url(#id11)"><path fill="#ffffff" d="M 420.183594 227.023438 L 373.613281 207.4375 L 327.046875 227.023438 L 280.476562 207.4375 L 233.910156 227.023438 L 187.339844 207.4375 L 140.773438 227.023438 L 94.203125 207.4375 L 47.640625 227.023438 L 0.441406 207.175781 L 1.707031 204.167969 L 47.640625 223.488281 L 94.203125 203.898438 L 140.773438 223.488281 L 187.339844 203.898438 L 233.910156 223.488281 L 280.476562 203.898438 L 327.046875 223.488281 L 373.613281 203.898438 L 420.183594 223.488281 L 466.125 204.167969 L 467.390625 207.175781 Z M 420.183594 227.023438 " fill-opacity="1" fill-rule="nonzero"/></g><g clip-path="url(#id12)"><path fill="#ffffff" d="M 420.183594 252.488281 L 373.613281 232.902344 L 327.046875 252.488281 L 280.476562 232.902344 L 233.910156 252.488281 L 187.339844 232.902344 L 140.773438 252.488281 L 94.203125 232.902344 L 47.640625 252.488281 L 0.441406 232.640625 L 1.707031 229.628906 L 47.640625 248.949219 L 94.203125 229.363281 L 140.773438 248.949219 L 187.339844 229.363281 L 233.910156 248.949219 L 280.476562 229.363281 L 327.046875 248.949219 L 373.613281 229.363281 L 420.183594 248.949219 L 466.125 229.628906 L 467.390625 232.640625 Z M 420.183594 252.488281 " fill-opacity="1" fill-rule="nonzero"/></g><g clip-path="url(#id13)"><path fill="#ffffff" d="M 420.183594 277.953125 L 373.613281 258.367188 L 327.046875 277.953125 L 280.476562 258.367188 L 233.910156 277.953125 L 187.339844 258.367188 L 140.773438 277.953125 L 94.203125 258.367188 L 47.640625 277.953125 L 0.441406 258.105469 L 1.707031 255.09375 L 47.640625 274.414062 L 94.203125 254.828125 L 140.773438 274.414062 L 187.339844 254.828125 L 233.910156 274.414062 L 280.476562 254.828125 L 327.046875 274.414062 L 373.613281 254.828125 L 420.183594 274.414062 L 466.125 255.09375 L 467.390625 258.105469 Z M 420.183594 277.953125 " fill-opacity="1" fill-rule="nonzero"/></g><g clip-path="url(#id14)"><path fill="#ffffff" d="M 420.183594 303.417969 L 373.613281 283.828125 L 327.046875 303.417969 L 280.476562 283.828125 L 233.910156 303.417969 L 187.339844 283.828125 L 140.773438 303.417969 L 94.203125 283.828125 L 47.640625 303.417969 L 0.441406 283.566406 L 1.707031 280.558594 L 47.640625 299.878906 L 94.203125 280.289062 L 140.773438 299.878906 L 187.339844 280.289062 L 233.910156 299.878906 L 280.476562 280.289062 L 327.046875 299.878906 L 373.613281 280.289062 L 420.183594 299.878906 L 466.125 280.558594 L 467.390625 283.566406 Z M 420.183594 303.417969 " fill-opacity="1" fill-rule="nonzero"/></g><g clip-path="url(#id15)"><path fill="#ffffff" d="M 420.183594 328.882812 L 373.613281 309.292969 L 327.046875 328.882812 L 280.476562 309.292969 L 233.910156 328.882812 L 187.339844 309.292969 L 140.773438 328.882812 L 94.203125 309.292969 L 47.640625 328.882812 L 0.441406 309.03125 L 1.707031 306.023438 L 47.640625 325.34375 L 94.203125 305.753906 L 140.773438 325.34375 L 187.339844 305.753906 L 233.910156 325.34375 L 280.476562 305.753906 L 327.046875 325.34375 L 373.613281 305.753906 L 420.183594 325.34375 L 466.125 306.023438 L 467.390625 309.03125 Z M 420.183594 328.882812 " fill-opacity="1" fill-rule="nonzero"/></g><g clip-path="url(#id16)"><path fill="#ffffff" d="M 420.183594 354.34375 L 373.613281 334.757812 L 327.046875 354.34375 L 280.476562 334.757812 L 233.910156 354.34375 L 187.339844 334.757812 L 140.773438 354.34375 L 94.203125 334.757812 L 47.640625 354.34375 L 0.441406 334.496094 L 1.707031 331.484375 L 47.640625 350.804688 L 94.203125 331.21875 L 140.773438 350.804688 L 187.339844 331.21875 L 233.910156 350.804688 L 280.476562 331.21875 L 327.046875 350.804688 L 373.613281 331.21875 L 420.183594 350.804688 L 466.125 331.484375 L 467.390625 334.496094 Z M 420.183594 354.34375 " fill-opacity="1" fill-rule="nonzero"/></g><g clip-path="url(#id17)"><path fill="#ffffff" d="M 420.183594 379.808594 L 373.613281 360.222656 L 327.046875 379.808594 L 280.476562 360.222656 L 233.910156 379.808594 L 187.339844 360.222656 L 140.773438 379.808594 L 94.203125 360.222656 L 47.640625 379.808594 L 0.441406 359.960938 L 1.707031 356.949219 L 47.640625 376.269531 L 94.203125 356.683594 L 140.773438 376.269531 L 187.339844 356.683594 L 233.910156 376.269531 L 280.476562 356.683594 L 327.046875 376.269531 L 373.613281 356.683594 L 420.183594 376.269531 L 466.125 356.949219 L 467.390625 359.960938 Z M 420.183594 379.808594 " fill-opacity="1" fill-rule="nonzero"/></g><g clip-path="url(#id18)"><path fill="#ffffff" d="M 420.183594 405.273438 L 373.613281 385.683594 L 327.046875 405.273438 L 280.476562 385.683594 L 233.910156 405.273438 L 187.339844 385.683594 L 140.773438 405.273438 L 94.203125 385.683594 L 47.640625 405.273438 L 0.441406 385.425781 L 1.707031 382.414062 L 47.640625 401.734375 L 94.203125 382.144531 L 140.773438 401.734375 L 187.339844 382.144531 L 233.910156 401.734375 L 280.476562 382.144531 L 327.046875 401.734375 L 373.613281 382.144531 L 420.183594 401.734375 L 466.125 382.414062 L 467.390625 385.425781 Z M 420.183594 405.273438 " fill-opacity="1" fill-rule="nonzero"/></g><g clip-path="url(#id19)"><path fill="#ffffff" d="M 420.183594 430.738281 L 373.613281 411.148438 L 327.046875 430.738281 L 280.476562 411.148438 L 233.910156 430.738281 L 187.339844 411.148438 L 140.773438 430.738281 L 94.203125 411.148438 L 47.640625 430.738281 L 0.441406 410.886719 L 1.707031 407.878906 L 47.640625 427.199219 L 94.203125 407.609375 L 140.773438 427.199219 L 187.339844 407.609375 L 233.910156 427.199219 L 280.476562 407.609375 L 327.046875 427.199219 L 373.613281 407.609375 L 420.183594 427.199219 L 466.125 407.878906 L 467.390625 410.886719 Z M 420.183594 430.738281 " fill-opacity="1" fill-rule="nonzero"/></g><g clip-path="url(#id20)"><path fill="#ffffff" d="M 420.183594 456.199219 L 373.613281 436.613281 L 327.046875 456.199219 L 280.476562 436.613281 L 233.910156 456.199219 L 187.339844 436.613281 L 140.773438 456.199219 L 94.203125 436.613281 L 47.640625 456.199219 L 0.441406 436.351562 L 1.707031 433.339844 L 47.640625 452.660156 L 94.203125 433.074219 L 140.773438 452.660156 L 187.339844 433.074219 L 233.910156 452.660156 L 280.476562 433.074219 L 327.046875 452.660156 L 373.613281 433.074219 L 420.183594 452.660156 L 466.125 433.339844 L 467.390625 436.351562 Z M 420.183594 456.199219 " fill-opacity="1" fill-rule="nonzero"/></g></g></g></g><g clip-path="url(#id22)"><path fill="#ffffff" d="M 409.214844 235.964844 C 313.648438 235.964844 235.964844 313.71875 235.964844 409.214844 C 235.964844 504.78125 313.648438 582.464844 409.214844 582.464844 C 504.710938 582.464844 582.464844 504.78125 582.464844 409.214844 C 582.464844 313.71875 504.710938 235.964844 409.214844 235.964844 Z M 409.214844 568.953125 C 321.136719 568.953125 249.480469 497.296875 249.480469 409.214844 C 249.480469 321.136719 321.136719 249.480469 409.214844 249.480469 C 497.296875 249.480469 568.953125 321.136719 568.953125 409.214844 C 568.953125 497.296875 497.296875 568.953125 409.214844 568.953125 Z M 409.214844 568.953125 " fill-opacity="1" fill-rule="nonzero"/></g><path fill="#ffffff" d="M 409.214844 258.488281 C 326.125 258.488281 258.488281 326.125 258.488281 409.214844 C 258.488281 492.304688 326.125 559.941406 409.214844 559.941406 C 492.304688 559.941406 559.941406 492.304688 559.941406 409.214844 C 559.941406 326.125 492.304688 258.488281 409.214844 258.488281 Z M 409.214844 258.488281 " fill-opacity="1" fill-rule="nonzero"/><g clip-path="url(#id23)"><path stroke-linecap="butt" transform="matrix(0.421048, 0, 0, 0.421042, 190.674604, 255.901942)" fill="none" stroke-linejoin="miter" d="M 239.026959 548.417539 C 250.883537 553.232605 292.984595 591.576863 300.870425 550.922487 C 308.988192 509.071302 343.658014 459.065121 363.335481 474.085531 C 379.979222 486.786544 300.202449 526.995596 314.610325 542.173724 C 326.986441 555.218008 368.605071 520.167294 375.201336 503.439809 C 385.916788 476.330706 362.268574 455.242756 341.477814 459.092954 C 293.318583 468.01799 292.706271 505.851981 295.248292 526.559549 C 297.289331 543.166426 322.58893 553.269716 340.225358 550.922487 C 370.831658 546.831072 403.83154 516.484093 392.698603 489.078107 C 389.303057 480.728281 372.705703 459.092954 372.705703 459.092954 L 411.439047 418.494243 L 449.541524 444.100377 C 455.961518 442.17064 459.459116 437.708121 458.911747 429.729398 C 471.788844 438.116335 482.225973 435.453668 489.518046 418.494243 C 453.595769 404.438703 429.223914 382.534325 405.816914 339.783215 C 391.409037 313.471985 378.374223 352.02035 392.698603 369.768369 C 380.758527 377.125494 376.75067 386.217527 390.193692 399.122647 C 399.480417 406.90654 407.032259 411.350503 420.178403 395.374503 C 427.062269 387.015399 449.84768 351.964684 449.84768 351.964684 C 416.11488 337.909143 392.698603 314.483242 385.202425 294.805485 C 407.31986 258.854844 435.161481 240.373896 468.903558 217.346931 C 573.534613 250.774068 652.940287 332.017877 716.889734 405.366461 C 702.18498 466.487189 665.548339 515.64911 625.070835 525.307076 C 569.990628 492.056212 533.066386 456.467397 500.140724 420.368316 C 520.773768 381.216908 546.518685 343.856075 581.346224 346.657906 C 610.932004 349.042245 671.61579 390.819208 674.417579 420.368316 C 676.078242 437.810175 671.921945 474.085531 618.196246 462.2195 C 595.086124 457.116828 553.476771 398.463938 569.480368 381.012802 C 596.62618 346.268247 659.063403 407.620914 678.165668 434.108418 C 690.402621 451.067843 715.396065 459.974324 737.5135 445.983727 C 768.500176 426.38019 791.313419 439.944019 798.104511 467.220118 " stroke="#000000" stroke-width="3.082" stroke-opacity="1" stroke-miterlimit="4"/></g><g clip-path="url(#id24)"><g clip-path="url(#id25)"><g clip-path="url(#id26)"><g clip-path="url(#id27)"><path fill="#dd2e44" d="M 351.980469 514.234375 C 353.828125 510.152344 359.992188 511.121094 359.539062 516.609375 C 363.367188 512.644531 368.160156 516.640625 366.3125 520.722656 C 364.304688 525.15625 354.59375 527.535156 354.59375 527.535156 C 354.59375 527.535156 349.972656 518.667969 351.980469 514.234375 Z M 351.980469 514.234375 " fill-opacity="1" fill-rule="nonzero"/></g></g></g></g><g clip-path="url(#id28)"><g clip-path="url(#id29)"><g clip-path="url(#id30)"><g clip-path="url(#id31)"><path fill="#dd2e44" d="M 454.703125 518.691406 C 453.953125 514.273438 459.605469 511.628906 462.300781 516.433594 C 463.253906 511.007812 469.464844 511.640625 470.214844 516.058594 C 471.027344 520.859375 464.304688 528.261719 464.304688 528.261719 C 464.304688 528.261719 455.519531 523.492188 454.703125 518.691406 Z M 454.703125 518.691406 " fill-opacity="1" fill-rule="nonzero"/></g></g></g></g><g fill="#302f2f" fill-opacity="1"><g transform="translate(301.333751, 418.345756)"><g><path d="M -30.289062 -28.453125 C -30.460938 -20.230469 -5.238281 -15.347656 -0.199219 -11.472656 C 1.195312 -10.316406 2.558594 -13.285156 1.363281 -14.1875 C -0.917969 -15.976562 -6.601562 -17.585938 -11.925781 -19.722656 C -7.140625 -27.789062 -9.128906 -37.839844 -19.917969 -40.644531 C -28.882812 -42.976562 -34.992188 -36.171875 -36.234375 -28.09375 C -37.507812 -19.332031 -32.945312 -11 -25.460938 -10.011719 C -22.988281 -9.683594 -20.34375 -10.191406 -18.101562 -12.011719 C -17.101562 -12.625 -18.226562 -14.949219 -19.457031 -14.308594 C -27.339844 -9.230469 -34.894531 -18.757812 -33.136719 -28.140625 C -31.96875 -33.9375 -27.554688 -38.734375 -20.992188 -37.292969 C -13.535156 -35.675781 -9.601562 -29.089844 -14.101562 -20.585938 C -19.765625 -22.765625 -27.042969 -24.875 -28.011719 -29.238281 C -28.414062 -30.949219 -30.273438 -29.878906 -30.289062 -28.453125 Z M -30.289062 -28.453125 "/></g></g></g><g fill="#302f2f" fill-opacity="1"><g transform="translate(306.255027, 383.649395)"><g><path d="M -17.472656 -19.949219 C -19.011719 -13.207031 -14.175781 -5.519531 -8.882812 -2.003906 C -4.464844 0.957031 0.203125 1.132812 1.921875 -3.253906 C 3.394531 -7.066406 1.023438 -10.648438 -1.5 -14.167969 C 2.101562 -11.609375 5.160156 -12.296875 6.105469 -14.546875 C 8.101562 -19.308594 3.578125 -25.390625 -0.980469 -30.074219 C -1.632812 -30.714844 -2.917969 -29.410156 -2.460938 -29.03125 C 2.234375 -24.539062 5.101562 -18.90625 4.113281 -16.550781 C 3.566406 -15.242188 2.265625 -15.664062 0.167969 -16.976562 C -2.855469 -18.859375 -6.941406 -22.171875 -9.21875 -23.929688 C -10.105469 -24.609375 -12.125 -22.132812 -11.03125 -21.367188 C -2.386719 -15.277344 2.34375 -5.292969 -1.546875 -3.789062 C -3.902344 -2.867188 -8.527344 -5.488281 -11.3125 -9.117188 C -13.902344 -12.480469 -15.300781 -16.328125 -14.722656 -19.46875 C -14.34375 -21.835938 -12.523438 -24.269531 -9.851562 -25.796875 C -8.9375 -26.210938 -10.023438 -28.757812 -10.839844 -28.425781 C -14.628906 -26.875 -16.777344 -23.222656 -17.472656 -19.949219 Z M -17.472656 -19.949219 "/></g></g></g><g fill="#302f2f" fill-opacity="1"><g transform="translate(314.863537, 362.694357)"><g><path d="M 4.050781 -5.070312 C 5.625 -7.292969 6.074219 -10.484375 4.789062 -13.136719 C 7.074219 -15.90625 7.722656 -20.402344 3.207031 -27.09375 C 2.742188 -27.820312 1.207031 -26.871094 1.550781 -26.367188 C 5.410156 -20.734375 5.179688 -17.257812 3.621094 -14.957031 C -0.589844 -20.070312 -7.042969 -18.136719 -13.683594 -22.292969 C -14.125 -24.578125 -17.195312 -24.191406 -16.796875 -20.425781 C -16.417969 -16.332031 -13.78125 -11.324219 -9.765625 -5.3125 C -9.421875 -4.808594 -7.90625 -5.628906 -8.25 -6.136719 C -11.839844 -11.859375 -13.925781 -15.257812 -14.789062 -19.75 C -10.21875 -16.378906 -3.117188 -16.847656 -0.175781 -14.308594 C -1.285156 -13.277344 0.425781 -10.949219 2.273438 -11.550781 C 2.863281 -10.398438 2.894531 -8.523438 1.988281 -7.082031 C 0.730469 -5.125 -1.867188 -4.828125 -4.503906 -7.917969 C -5.082031 -8.582031 -6.808594 -7.148438 -5.984375 -6.039062 C -2.695312 -1.484375 1.777344 -1.8125 4.050781 -5.070312 Z M 4.050781 -5.070312 "/></g></g></g><g fill="#302f2f" fill-opacity="1"><g transform="translate(326.235786, 346.036294)"><g><path d="M 3.476562 -2.882812 C 7.117188 -6.9375 6.207031 -13.855469 2.675781 -21.125 C 2.289062 -21.953125 0.664062 -21.300781 0.921875 -20.746094 C 2.984375 -16.636719 5.089844 -8.757812 1.988281 -5.445312 C -0.261719 -3.042969 -3.5625 -5.742188 -6.933594 -10.609375 C -8.363281 -12.652344 -10.144531 -15.484375 -11.886719 -18.355469 L -7.582031 -22.953125 C -7.195312 -23.449219 -8.257812 -25.21875 -9.171875 -24.910156 L -13.242188 -20.558594 C -15.589844 -24.777344 -17.855469 -29 -19.28125 -32.042969 C -19.753906 -33.03125 -22.429688 -31.417969 -22 -30.46875 C -20.484375 -27.105469 -18.121094 -22.40625 -15.609375 -18.035156 L -17.390625 -16.128906 C -17.527344 -15.320312 -16.71875 -14.023438 -15.648438 -14.339844 L -14.25 -15.832031 C -9.585938 -8.277344 -2.371094 3.609375 3.476562 -2.882812 Z M 3.476562 -2.882812 "/></g></g></g><g fill="#302f2f" fill-opacity="1"><g transform="translate(334.929481, 336.050958)"><g><path d="M -4.703125 -26.75 C -8.851562 -23.953125 -10.804688 -17.402344 -8.355469 -10.464844 C -6 -3.742188 0.0429688 -0.0351562 6.304688 -4.183594 C 9.480469 -6.296875 15.453125 -12.019531 11.472656 -24.808594 C 11.207031 -25.609375 9.5 -25.214844 9.671875 -24.628906 C 12.507812 -14.972656 8.679688 -8.621094 4.652344 -6.496094 C 1.144531 -4.628906 -2.378906 -6.199219 -4.273438 -10.117188 C 2.34375 -12.605469 5.515625 -17.585938 4.554688 -22.519531 C 3.742188 -26.703125 -0.238281 -29.789062 -4.703125 -26.75 Z M -3.601562 -24.226562 C -0.824219 -26.386719 1.070312 -23.765625 1.507812 -20.796875 C 2.035156 -17.253906 -0.433594 -14.328125 -5.160156 -12.089844 C -6.960938 -16.4375 -6.199219 -22.207031 -3.601562 -24.226562 Z M -3.601562 -24.226562 "/></g></g></g><g fill="#302f2f" fill-opacity="1"><g transform="translate(350.903687, 323.69696)"><g><path d="M -9.652344 -37.875 C -11.324219 -33.851562 -10.398438 -25.554688 -8.332031 -17.304688 C -5.902344 -7.570312 -2.402344 0.929688 3.804688 -1.441406 C 10.386719 -3.953125 10.167969 -11.664062 9.515625 -19.460938 C 9.425781 -20.449219 7.605469 -20.226562 7.679688 -19.621094 C 8.152344 -15.929688 8.765625 -6.558594 3.460938 -4.425781 C 0.335938 -3.160156 -2.128906 -7.894531 -3.929688 -13.765625 C -0.339844 -20.203125 0.597656 -26.867188 0.0429688 -32.710938 C -0.816406 -41.945312 -7.328125 -43.550781 -9.652344 -37.875 Z M -6.023438 -37.988281 C -4.398438 -38.6875 -3.164062 -34.898438 -2.769531 -29.226562 C -2.53125 -25.019531 -3.3125 -20.902344 -4.804688 -16.78125 C -5.945312 -21.332031 -6.675781 -25.851562 -6.972656 -28.277344 C -7.628906 -33.484375 -7.699219 -37.265625 -6.023438 -37.988281 Z M -6.023438 -37.988281 "/></g></g></g><g fill="#302f2f" fill-opacity="1"><g transform="translate(362.648874, 316.717655)"><g><path d="M 3.90625 -26.878906 C -0.914062 -25.519531 -4.816406 -19.910156 -4.660156 -12.554688 C -4.527344 -5.433594 0.0546875 -0.0195312 7.296875 -2 C 10.976562 -3.011719 18.4375 -6.578125 18.660156 -19.972656 C 18.660156 -20.816406 16.914062 -20.976562 16.890625 -20.367188 C 16.566406 -10.308594 10.941406 -5.46875 6.453125 -4.710938 C 2.535156 -4.039062 -0.320312 -6.632812 -0.894531 -10.949219 C 6.171875 -11.238281 10.742188 -14.976562 11.371094 -19.964844 C 11.914062 -24.191406 9.097656 -28.367188 3.90625 -26.878906 Z M 4.160156 -24.136719 C 7.472656 -25.320312 8.453125 -22.234375 7.941406 -19.28125 C 7.332031 -15.75 4.074219 -13.742188 -1.117188 -13.097656 C -1.46875 -17.792969 1.058594 -23.03125 4.160156 -24.136719 Z M 4.160156 -24.136719 "/></g></g></g><g fill="#302f2f" fill-opacity="1"><g transform="translate(381.403921, 309.890347)"><g><path d="M -1.261719 -10.144531 C 0.269531 -15.699219 0.59375 -19.554688 0.929688 -23.351562 C 2.632812 -21.800781 5.890625 -19.878906 4.78125 -17.617188 C 2.898438 -13.785156 1.164062 -9.75 1.847656 -6.070312 C 2.453125 -2.832031 4.644531 -0.441406 8.308594 -0.890625 C 13.671875 -1.515625 17.191406 -7.234375 19.105469 -15.960938 C 19.261719 -16.738281 17.5625 -17.253906 17.433594 -16.65625 C 15.664062 -8.414062 11.890625 -4.207031 8.792969 -3.796875 C 6.9375 -3.539062 5.816406 -4.726562 5.4375 -6.621094 C 4.757812 -9.957031 6.496094 -13.9375 8.492188 -17.441406 C 10.089844 -20.246094 4.546875 -23.390625 1.441406 -26.085938 C 1.925781 -33.421875 -6.265625 -29.785156 -0.78125 -24.617188 C -1.175781 -19.484375 -1.476562 -16.496094 -2.914062 -10.730469 C -3.164062 -10.167969 -1.410156 -9.660156 -1.261719 -10.144531 Z M -1.261719 -10.144531 "/></g></g></g><g fill="#302f2f" fill-opacity="1"><g transform="translate(399.111901, 307.036951)"><g><path d="M 4.871094 -33.535156 C 4.066406 -32.367188 2.515625 -30.03125 1.769531 -28.808594 C 1.082031 -27.589844 3.597656 -27.179688 4.292969 -28.175781 L 7.523438 -32.566406 C 8.332031 -33.621094 5.617188 -34.644531 4.871094 -33.535156 Z M 1.667969 -22.957031 C -0.3125 -14.527344 -1.140625 -11.140625 -2.167969 -5.816406 C -2.964844 -1.640625 -2.019531 0.59375 1.269531 0.515625 C 6.207031 0.371094 9.683594 -7.554688 12.015625 -12.988281 C 12.433594 -13.914062 10.644531 -14.578125 10.390625 -13.886719 C 8.558594 -8.699219 4.839844 -2.414062 2.011719 -2.183594 C 0.3125 -2.058594 0.628906 -4 1.101562 -6.347656 C 2.046875 -11.042969 2.574219 -13.339844 4.804688 -22.6875 C 4.992188 -23.601562 2.007812 -24.390625 1.667969 -22.957031 Z M 1.667969 -22.957031 "/></g></g></g><g fill="#302f2f" fill-opacity="1"><g transform="translate(407.77612, 305.939334)"><g><path d="M 14.171875 -22.414062 C 7.273438 -21.976562 1.269531 -15.160156 -0.597656 -9.085938 C -2.183594 -4.007812 -1.027344 0.515625 3.667969 0.917969 C 7.738281 1.253906 10.5 -2.039062 13.160156 -5.457031 C 11.730469 -1.277344 13.253906 1.460938 15.679688 1.726562 C 20.8125 2.292969 25.363281 -3.769531 28.558594 -9.46875 C 28.992188 -10.277344 27.375 -11.140625 27.140625 -10.59375 C 24.164062 -4.816406 19.574219 -0.46875 17.039062 -0.75 C 15.628906 -0.902344 15.664062 -2.269531 16.324219 -4.652344 C 17.273438 -8.085938 19.296875 -12.945312 20.332031 -15.628906 C 20.734375 -16.667969 17.785156 -17.90625 17.363281 -16.640625 C 13.972656 -6.625 5.742188 0.746094 3.195312 -2.558594 C 1.644531 -4.558594 2.84375 -9.734375 5.535156 -13.433594 C 8.023438 -16.871094 11.320312 -19.304688 14.496094 -19.636719 C 16.871094 -19.949219 19.722656 -18.890625 21.941406 -16.761719 C 22.601562 -16.003906 24.734375 -17.769531 24.183594 -18.457031 C 21.625 -21.648438 17.511719 -22.675781 14.171875 -22.414062 Z M 14.171875 -22.414062 "/></g></g></g><g fill="#302f2f" fill-opacity="1"><g transform="translate(430.986456, 308.878353)"><g/></g></g><g fill="#302f2f" fill-opacity="1"><g transform="translate(438.666707, 308.336075)"><g><path d="M 44.472656 -21.222656 C 38.75 -24.355469 33.066406 -24.441406 28.675781 -22.742188 C 24.335938 -21.011719 20.050781 -15.902344 22.40625 -10.328125 C 22.601562 -9.128906 25.171875 -9.359375 25.058594 -10.710938 C 24.007812 -20.15625 34.429688 -23.261719 42.976562 -18.550781 C 49.375 -14.992188 50.054688 -10.375 46.933594 -6.835938 C 43.550781 -3.046875 37.824219 -3.539062 32.210938 -7 C 34.617188 -9.445312 37.609375 -13.703125 41.433594 -13.390625 C 43.179688 -13.289062 43.339844 -15.265625 41.953125 -15.683594 C 35.085938 -17.886719 28.96875 -6.359375 19.6875 1.347656 C 17.109375 -4.410156 10.15625 -7.175781 7.027344 -1.578125 C 5.367188 1.398438 7.011719 4.339844 9.859375 5.867188 C 12.238281 7.078125 15.453125 7.320312 18.292969 5.75 C 19.996094 9.175781 21.394531 11.855469 25.113281 14.042969 C 31.679688 17.886719 37.378906 16.628906 41.328125 10.699219 C 44.5625 5.867188 42.3125 0.21875 38.882812 -2.394531 C 42.253906 -1.230469 47.371094 -1.769531 50.058594 -5.222656 C 54.011719 -10.3125 51.847656 -17.207031 44.472656 -21.222656 Z M 30.464844 -5.300781 C 32.816406 -4.167969 34.265625 -3.261719 36.078125 -1.839844 C 39.15625 0.585938 41.019531 4.675781 38.253906 8.988281 C 33.367188 16.539062 23.917969 12.308594 20.699219 4.144531 C 24.5625 1.257812 28.320312 -3.101562 30.464844 -5.300781 Z M 14.726562 -0.925781 C 15.894531 -0.105469 16.714844 1.367188 17.433594 2.910156 C 15.085938 4.289062 13.429688 4.496094 11.953125 3.769531 C 6.746094 1.105469 10.921875 -3.800781 14.726562 -0.925781 Z M 14.726562 -0.925781 "/></g></g></g><g fill="#302f2f" fill-opacity="1"><g transform="translate(475.027443, 329.170202)"><g><path d="M 7.386719 -7.070312 C 12.753906 -9.160156 16.039062 -11.199219 19.285156 -13.199219 C 19.058594 -10.90625 19.464844 -7.144531 16.984375 -6.6875 C 12.789062 -5.910156 8.519531 -4.890625 5.972656 -2.140625 C 3.738281 0.277344 3.128906 3.460938 5.675781 6.132812 C 9.378906 10.0625 16.066406 9.46875 24.210938 5.792969 C 24.925781 5.453125 24.328125 3.78125 23.769531 4.035156 C 16.105469 7.539062 10.472656 7.027344 8.296875 4.789062 C 6.980469 3.453125 7.265625 1.84375 8.558594 0.40625 C 10.828125 -2.132812 15.058594 -3.109375 19.0625 -3.601562 C 22.265625 -3.996094 21.476562 -10.320312 21.785156 -14.421875 C 27.957031 -18.414062 20.152344 -22.8125 19.277344 -15.328125 C 14.925781 -12.578125 12.351562 -11.035156 6.863281 -8.746094 C 6.265625 -8.609375 6.90625 -6.898438 7.386719 -7.070312 Z M 7.386719 -7.070312 "/></g></g></g><g fill="#302f2f" fill-opacity="1"><g transform="translate(487.882781, 341.652434)"><g><path d="M 24.941406 -13.011719 C 25.65625 -12.128906 26.90625 -11.753906 28.046875 -12.601562 C 29.183594 -13.449219 29.152344 -14.664062 28.4375 -15.546875 C 27.726562 -16.429688 26.472656 -16.804688 25.335938 -15.957031 C 24.195312 -15.109375 24.226562 -13.894531 24.941406 -13.011719 Z M 0.34375 1.328125 C 3.617188 5.46875 12.300781 3.84375 17.804688 2.167969 C 18.761719 1.90625 18.300781 0.164062 17.59375 0.371094 C 12.410156 2.082031 5.039062 2.710938 2.953125 0.3125 C 1.839844 -0.976562 3.589844 -1.878906 5.753906 -2.902344 C 10.085938 -4.941406 12.242188 -5.886719 21.078125 -9.667969 C 21.925781 -10.0625 20.777344 -12.929688 19.425781 -12.347656 C 11.476562 -8.910156 8.265625 -7.558594 3.375 -5.210938 C -0.453125 -3.355469 -1.679688 -1.265625 0.34375 1.328125 Z M 0.34375 1.328125 "/></g></g></g><g fill="#302f2f" fill-opacity="1"><g transform="translate(494.290587, 347.302639)"><g><path d="M 11.6875 23.15625 C 13.796875 27.113281 22.53125 27.21875 28.378906 26.609375 C 29.289062 26.511719 29.117188 24.738281 28.511719 24.804688 C 22.996094 25.554688 15.691406 24.878906 14.253906 22.300781 C 12.84375 19.773438 24.265625 18.644531 28.195312 17.449219 C 32.90625 16.035156 34.683594 14.058594 33 10.777344 C 31.234375 7.34375 26.445312 6.683594 22.554688 6.503906 C 26.644531 5.609375 28.707031 2.839844 27.261719 0.0117188 C 25.527344 -3.371094 20.351562 -4.28125 16.113281 -4.144531 C 18.4375 -4.613281 19.597656 -4.972656 22.296875 -5.574219 C 23.734375 -5.890625 22.585938 -9.136719 21.351562 -8.800781 C 12.25 -6.332031 7.429688 -5.242188 -0.269531 -3.523438 C -2.011719 -3.171875 -0.351562 0.1875 0.65625 -0.09375 C 4.238281 -1.097656 7.414062 -1.890625 10.871094 -2.640625 C 16.679688 -2.96875 23.003906 -1.707031 24.074219 0.421875 C 25.011719 2.300781 22.269531 3.183594 20.402344 3.664062 C 13.667969 5.386719 9.304688 6.488281 5.015625 7.488281 C 3.832031 7.796875 5.328125 10.726562 6.566406 10.519531 C 8.613281 10.136719 12.363281 8.972656 15.847656 8.148438 C 20.917969 6.925781 28.660156 8.910156 29.96875 11.363281 C 30.980469 13.265625 27.898438 13.878906 26.03125 14.359375 C 22.476562 15.289062 17.199219 16.363281 14.558594 17.320312 C 11.492188 18.4375 10.222656 20.402344 11.6875 23.15625 Z M 11.6875 23.15625 "/></g></g></g><g fill="#302f2f" fill-opacity="1"><g transform="translate(508.929298, 374.963872)"><g><path d="M 25.914062 5.632812 C 23.136719 -0.699219 14.675781 -4 8.332031 -3.675781 C 3.015625 -3.425781 -0.835938 -0.789062 0.394531 3.757812 C 1.476562 7.699219 5.515625 9.164062 9.636719 10.492188 C 5.21875 10.582031 3.171875 12.953125 3.75 15.324219 C 4.976562 20.339844 12.234375 22.535156 18.683594 23.585938 C 19.589844 23.714844 19.847656 21.898438 19.253906 21.867188 C 12.804688 21.050781 7.148438 18.230469 6.542969 15.75 C 6.203125 14.371094 7.5 13.9375 9.964844 13.742188 C 13.515625 13.457031 18.773438 13.691406 21.648438 13.746094 C 22.765625 13.765625 22.917969 10.574219 21.582031 10.609375 C 11.011719 10.859375 1.265625 5.648438 3.5 2.121094 C 4.84375 -0.015625 10.117188 -0.664062 14.515625 0.59375 C 18.597656 1.757812 22.015625 4.015625 23.417969 6.886719 C 24.519531 9.011719 24.507812 12.054688 23.269531 14.867188 C 22.78125 15.746094 25.167969 17.148438 25.628906 16.394531 C 27.75 12.894531 27.304688 8.683594 25.914062 5.632812 Z M 25.914062 5.632812 "/></g></g></g><g fill="#302f2f" fill-opacity="1"><g transform="translate(514.362597, 397.122498)"><g><path d="M 10.222656 -0.0859375 C 15.566406 2.074219 19.355469 2.835938 23.089844 3.605469 C 21.351562 5.117188 19.070312 8.136719 16.953125 6.773438 C 13.363281 4.460938 9.554688 2.277344 5.816406 2.53125 C 2.53125 2.761719 -0.09375 4.664062 -0.0664062 8.355469 C -0.0664062 13.753906 5.210938 17.90625 13.660156 20.8125 C 14.414062 21.054688 15.121094 19.425781 14.542969 19.230469 C 6.558594 16.527344 2.8125 12.296875 2.757812 9.171875 C 2.71875 7.300781 4.027344 6.320312 5.953125 6.164062 C 9.347656 5.867188 13.097656 8.054688 16.351562 10.441406 C 18.953125 12.347656 22.714844 7.207031 25.75 4.429688 C 32.976562 5.75 30.308594 -2.800781 24.542969 2.050781 C 19.492188 1.070312 16.558594 0.429688 10.992188 -1.664062 C 10.464844 -1.976562 9.757812 -0.289062 10.222656 -0.0859375 Z M 10.222656 -0.0859375 "/></g></g></g><g fill="#302f2f" fill-opacity="1"><g transform="translate(370.837321, 533.01158)"><g><path d="M 7.917969 -12.109375 L 5.875 -12.589844 L 3.984375 -13.039062 L 3.320312 -13.195312 L 2.925781 -11.53125 L 3.589844 -11.375 L 1.246094 -1.464844 L 0.582031 -1.621094 L 0.1875 0.0429688 L 0.851562 0.203125 L 2.742188 0.648438 L 4.785156 1.132812 C 7.320312 1.730469 8.898438 0.628906 9.464844 -1.757812 L 10.804688 -7.429688 C 11.371094 -9.8125 10.453125 -11.507812 7.917969 -12.109375 Z M 5.480469 -10.925781 L 7.335938 -10.488281 C 8.734375 -10.15625 9.242188 -9.257812 8.914062 -7.878906 L 7.570312 -2.203125 C 7.246094 -0.824219 6.390625 -0.246094 4.988281 -0.578125 L 3.136719 -1.015625 Z M 5.480469 -10.925781 "/></g></g></g><g fill="#302f2f" fill-opacity="1"><g transform="translate(380.470251, 535.251211)"><g><path d="M 5.476562 -9.21875 C 3.558594 -9.554688 2.320312 -8.6875 2.023438 -6.984375 L 1.199219 -2.316406 C 0.898438 -0.613281 1.765625 0.628906 3.679688 0.964844 C 5.59375 1.300781 6.832031 0.433594 7.132812 -1.269531 L 7.25 -1.9375 L 5.527344 -2.242188 L 5.367188 -1.34375 C 5.246094 -0.652344 4.78125 -0.144531 3.902344 -0.296875 C 3.019531 -0.453125 2.757812 -1.09375 2.878906 -1.78125 L 3.222656 -3.734375 L 7.433594 -2.992188 L 7.957031 -5.9375 C 8.257812 -7.640625 7.390625 -8.882812 5.476562 -9.21875 Z M 3.445312 -4.976562 L 3.785156 -6.910156 C 3.90625 -7.601562 4.371094 -8.109375 5.25 -7.957031 C 6.132812 -7.800781 6.394531 -7.160156 6.273438 -6.472656 L 5.933594 -4.539062 Z M 3.445312 -4.976562 "/></g></g></g><g fill="#302f2f" fill-opacity="1"><g transform="translate(388.221701, 536.611093)"><g><path d="M 4.996094 -9.484375 C 3.03125 -9.730469 1.886719 -8.875 1.691406 -7.3125 L 1.570312 -6.328125 C 1.464844 -5.496094 1.894531 -4.699219 2.65625 -4.351562 L 4.941406 -3.1875 C 5.25 -3.011719 5.425781 -2.695312 5.382812 -2.328125 L 5.292969 -1.613281 C 5.203125 -0.902344 4.710938 -0.394531 3.882812 -0.496094 C 3.050781 -0.601562 2.695312 -1.210938 2.785156 -1.925781 L 2.878906 -2.679688 L 1.144531 -2.894531 L 1.050781 -2.140625 C 0.871094 -0.695312 1.753906 0.53125 3.722656 0.777344 C 5.691406 1.019531 6.847656 0.046875 7.027344 -1.398438 L 7.152344 -2.382812 C 7.253906 -3.210938 6.824219 -4.011719 6.066406 -4.359375 L 3.78125 -5.523438 C 3.46875 -5.699219 3.292969 -6.015625 3.339844 -6.382812 L 3.425781 -7.09375 C 3.515625 -7.808594 4.007812 -8.316406 4.839844 -8.214844 C 5.667969 -8.109375 6.023438 -7.496094 5.933594 -6.785156 L 5.839844 -6.03125 L 7.578125 -5.816406 L 7.671875 -6.570312 C 7.84375 -7.976562 6.964844 -9.242188 4.996094 -9.484375 Z M 4.996094 -9.484375 "/></g></g></g><g fill="#302f2f" fill-opacity="1"><g transform="translate(396.033765, 537.575096)"><g><path d="M 5.234375 -11.742188 L 5.914062 -11.695312 L 5.714844 -8.960938 C 5.339844 -9.433594 4.757812 -9.710938 3.960938 -9.769531 C 2.3125 -9.886719 1.421875 -8.898438 1.3125 -7.347656 L 0.941406 -2.230469 C 0.824219 -0.621094 1.566406 0.425781 3.214844 0.542969 C 4.183594 0.613281 4.925781 0.335938 5.359375 -0.292969 L 5.523438 0.398438 L 5.582031 0.402344 L 6.785156 0.492188 L 7.464844 0.539062 L 7.574219 -0.972656 L 6.894531 -1.019531 L 7.65625 -11.566406 L 7.765625 -13.078125 L 6.023438 -13.207031 L 5.34375 -13.253906 Z M 5.5 -5.992188 L 5.28125 -2.96875 L 5.21875 -2.117188 C 5.167969 -1.417969 4.816406 -0.859375 3.867188 -0.929688 C 2.957031 -0.996094 2.644531 -1.5625 2.699219 -2.300781 L 3.042969 -7.03125 C 3.089844 -7.707031 3.484375 -8.285156 4.394531 -8.21875 C 5.285156 -8.152344 5.613281 -7.542969 5.5625 -6.847656 Z M 5.5 -5.992188 "/></g></g></g><g fill="#302f2f" fill-opacity="1"><g transform="translate(403.962683, 538.140474)"><g><path d="M 4 -9.949219 C 2.054688 -9.988281 0.964844 -8.941406 0.929688 -7.210938 L 0.828125 -2.472656 C 0.792969 -0.742188 1.839844 0.347656 3.78125 0.390625 C 5.726562 0.429688 6.816406 -0.617188 6.855469 -2.34375 L 6.867188 -3.023438 L 5.117188 -3.0625 L 5.101562 -2.148438 C 5.085938 -1.449219 4.703125 -0.875 3.808594 -0.890625 C 2.914062 -0.910156 2.558594 -1.5 2.574219 -2.203125 L 2.613281 -4.183594 L 6.890625 -4.09375 L 6.953125 -7.085938 C 6.988281 -8.816406 5.941406 -9.90625 4 -9.949219 Z M 2.640625 -5.445312 L 2.683594 -7.410156 C 2.695312 -8.109375 3.078125 -8.683594 3.972656 -8.664062 C 4.867188 -8.648438 5.222656 -8.054688 5.207031 -7.355469 L 5.167969 -5.394531 Z M 2.640625 -5.445312 "/></g></g></g><g fill="#302f2f" fill-opacity="1"><g transform="translate(411.754595, 538.26237)"><g/></g></g><g fill="#302f2f" fill-opacity="1"><g transform="translate(415.606997, 538.24657)"><g><path d="M 3.554688 -14.148438 C 1.1875 -14.011719 0.0429688 -12.601562 0.167969 -10.464844 L 0.210938 -9.746094 L 2.148438 -9.859375 L 2.113281 -10.480469 C 2.042969 -11.664062 2.527344 -12.375 3.652344 -12.441406 C 4.777344 -12.507812 5.34375 -11.859375 5.410156 -10.675781 L 5.480469 -9.492188 C 5.515625 -8.929688 5.253906 -8.40625 4.785156 -8.105469 L 1.859375 -6.183594 C 0.996094 -5.605469 0.511719 -4.585938 0.570312 -3.558594 L 0.777344 -0.046875 L 6.265625 -0.367188 L 7.957031 -0.464844 L 7.855469 -2.171875 L 7.773438 -3.609375 L 6.082031 -3.507812 L 6.167969 -2.074219 L 2.617188 -1.867188 L 2.511719 -3.691406 C 2.480469 -4.214844 2.722656 -4.695312 3.15625 -4.992188 L 6.117188 -6.9375 C 6.980469 -7.515625 7.484375 -8.515625 7.425781 -9.546875 L 7.347656 -10.882812 C 7.222656 -13.019531 5.921875 -14.285156 3.554688 -14.148438 Z M 3.554688 -14.148438 "/></g></g></g><g fill="#302f2f" fill-opacity="1"><g transform="translate(424.672125, 537.707276)"><g><path d="M 2.714844 -14.332031 C 0.359375 -14.054688 -0.699219 -12.582031 -0.449219 -10.457031 L 0.402344 -3.238281 C 0.652344 -1.113281 2.023438 0.0742188 4.378906 -0.203125 C 6.734375 -0.480469 7.792969 -1.957031 7.542969 -4.078125 L 6.691406 -11.296875 C 6.441406 -13.421875 5.070312 -14.609375 2.714844 -14.332031 Z M 2.914062 -12.632812 C 4.035156 -12.765625 4.636719 -12.152344 4.773438 -10.972656 L 5.601562 -3.949219 C 5.742188 -2.769531 5.300781 -2.035156 4.179688 -1.902344 C 3.058594 -1.769531 2.460938 -2.382812 2.320312 -3.5625 L 1.492188 -10.585938 C 1.355469 -11.765625 1.796875 -12.503906 2.914062 -12.632812 Z M 2.914062 -12.632812 "/></g></g></g><g fill="#302f2f" fill-opacity="1"><g transform="translate(433.689814, 536.635323)"><g><path d="M 1.867188 -14.46875 C -0.46875 -14.050781 -1.4375 -12.515625 -1.0625 -10.414062 L -0.9375 -9.703125 L 0.976562 -10.046875 L 0.867188 -10.65625 C 0.660156 -11.824219 1.054688 -12.585938 2.167969 -12.785156 C 3.277344 -12.980469 3.914062 -12.402344 4.121094 -11.238281 L 4.328125 -10.070312 C 4.425781 -9.515625 4.226562 -8.964844 3.796875 -8.613281 L 1.117188 -6.359375 C 0.332031 -5.683594 -0.03125 -4.613281 0.148438 -3.601562 L 0.765625 -0.136719 L 6.179688 -1.101562 L 7.847656 -1.398438 L 7.546875 -3.082031 L 7.292969 -4.496094 L 5.628906 -4.199219 L 5.882812 -2.785156 L 2.378906 -2.160156 L 2.058594 -3.960938 C 1.96875 -4.476562 2.152344 -4.984375 2.546875 -5.328125 L 5.257812 -7.609375 C 6.046875 -8.28125 6.433594 -9.339844 6.25 -10.351562 L 6.015625 -11.671875 C 5.640625 -13.777344 4.203125 -14.882812 1.867188 -14.46875 Z M 1.867188 -14.46875 "/></g></g></g><g fill="#302f2f" fill-opacity="1"><g transform="translate(442.62875, 535.034466)"><g><path d="M 1.011719 -14.550781 C -1.292969 -14 -2.171875 -12.410156 -1.675781 -10.332031 L 0.0195312 -3.261719 C 0.515625 -1.183594 2.019531 -0.164062 4.324219 -0.714844 C 6.632812 -1.269531 7.511719 -2.859375 7.011719 -4.9375 L 5.320312 -12.007812 C 4.820312 -14.085938 3.316406 -15.105469 1.011719 -14.550781 Z M 1.410156 -12.890625 C 2.507812 -13.152344 3.175781 -12.613281 3.453125 -11.460938 L 5.097656 -4.578125 C 5.375 -3.425781 5.023438 -2.640625 3.925781 -2.378906 C 2.832031 -2.117188 2.160156 -2.65625 1.886719 -3.808594 L 0.238281 -10.691406 C -0.0390625 -11.84375 0.3125 -12.625 1.410156 -12.890625 Z M 1.410156 -12.890625 "/></g></g></g></svg>