<svg xmlns="http://www.w3.org/2000/svg" xmlns:xlink="http://www.w3.org/1999/xlink" width="500" zoomAndPan="magnify" viewBox="0 0 375 374.999991" height="500" preserveAspectRatio="xMidYMid meet" version="1.0"><defs><filter x="0%" y="0%" width="100%" height="100%" id="id1"><feColorMatrix values="0 0 0 0 1 0 0 0 0 1 0 0 0 0 1 0 0 0 1 0" color-interpolation-filters="sRGB"/></filter><g/><mask id="id2"><g filter="url(#id1)"><rect x="-37.5" width="450" fill="#000000" y="-37.499999" height="449.999989" fill-opacity="0.1569"/></g></mask><clipPath id="id3"><path d="M 0 0 L 373.5 0 L 373.5 20 L 0 20 Z M 0 0 " clip-rule="nonzero"/></clipPath><clipPath id="id4"><path d="M 0 20 L 373.5 20 L 373.5 40 L 0 40 Z M 0 20 " clip-rule="nonzero"/></clipPath><clipPath id="id5"><path d="M 0 41 L 373.5 41 L 373.5 61 L 0 61 Z M 0 41 " clip-rule="nonzero"/></clipPath><clipPath id="id6"><path d="M 0 62 L 373.5 62 L 373.5 82 L 0 82 Z M 0 62 " clip-rule="nonzero"/></clipPath><clipPath id="id7"><path d="M 0 83 L 373.5 83 L 373.5 103 L 0 103 Z M 0 83 " clip-rule="nonzero"/></clipPath><clipPath id="id8"><path d="M 0 104 L 373.5 104 L 373.5 124 L 0 124 Z M 0 104 " clip-rule="nonzero"/></clipPath><clipPath id="id9"><path d="M 0 125 L 373.5 125 L 373.5 145 L 0 145 Z M 0 125 " clip-rule="nonzero"/></clipPath><clipPath id="id10"><path d="M 0 146 L 373.5 146 L 373.5 166 L 0 166 Z M 0 146 " clip-rule="nonzero"/></clipPath><clipPath id="id11"><path d="M 0 167 L 373.5 167 L 373.5 187 L 0 187 Z M 0 167 " clip-rule="nonzero"/></clipPath><clipPath id="id12"><path d="M 0 188 L 373.5 188 L 373.5 208 L 0 208 Z M 0 188 " clip-rule="nonzero"/></clipPath><clipPath id="id13"><path d="M 0 209 L 373.5 209 L 373.5 229 L 0 229 Z M 0 209 " clip-rule="nonzero"/></clipPath><clipPath id="id14"><path d="M 0 230 L 373.5 230 L 373.5 250 L 0 250 Z M 0 230 " clip-rule="nonzero"/></clipPath><clipPath id="id15"><path d="M 0 251 L 373.5 251 L 373.5 271 L 0 271 Z M 0 251 " clip-rule="nonzero"/></clipPath><clipPath id="id16"><path d="M 0 272 L 373.5 272 L 373.5 292 L 0 292 Z M 0 272 " clip-rule="nonzero"/></clipPath><clipPath id="id17"><path d="M 0 293 L 373.5 293 L 373.5 313 L 0 313 Z M 0 293 " clip-rule="nonzero"/></clipPath><clipPath id="id18"><path d="M 0 314 L 373.5 314 L 373.5 334 L 0 334 Z M 0 314 " clip-rule="nonzero"/></clipPath><clipPath id="id19"><path d="M 0 335 L 373.5 335 L 373.5 355 L 0 355 Z M 0 335 " clip-rule="nonzero"/></clipPath><clipPath id="id20"><path d="M 0 355 L 373.5 355 L 373.5 375 L 0 375 Z M 0 355 " clip-rule="nonzero"/></clipPath><clipPath id="id21"><rect x="0" width="375" y="0" height="375"/></clipPath><clipPath id="id22"><path d="M 48.375 48.375 L 333.375 48.375 L 333.375 333.375 L 48.375 333.375 Z M 48.375 48.375 " clip-rule="nonzero"/></clipPath><clipPath id="id23"><path d="M 93.75 139.472656 L 288 139.472656 L 288 263.222656 L 93.75 263.222656 Z M 93.75 139.472656 " clip-rule="nonzero"/></clipPath><clipPath id="id24"><path d="M 143 275 L 156 275 L 156 289 L 143 289 Z M 143 275 " clip-rule="nonzero"/></clipPath><clipPath id="id25"><path d="M 145.964844 272.789062 L 157.582031 278.046875 L 151.703125 291.027344 L 140.089844 285.769531 Z M 145.964844 272.789062 " clip-rule="nonzero"/></clipPath><clipPath id="id26"><path d="M 145.964844 272.789062 L 157.582031 278.046875 L 151.703125 291.027344 L 140.089844 285.769531 Z M 145.964844 272.789062 " clip-rule="nonzero"/></clipPath><clipPath id="id27"><path d="M 145.964844 272.789062 L 157.582031 278.046875 L 151.703125 291.027344 L 140.089844 285.769531 Z M 145.964844 272.789062 " clip-rule="nonzero"/></clipPath><clipPath id="id28"><path d="M 228 276 L 242 276 L 242 290 L 228 290 Z M 228 276 " clip-rule="nonzero"/></clipPath><clipPath id="id29"><path d="M 227.574219 276.066406 L 240.140625 273.933594 L 242.527344 287.984375 L 229.957031 290.117188 Z M 227.574219 276.066406 " clip-rule="nonzero"/></clipPath><clipPath id="id30"><path d="M 227.574219 276.066406 L 240.140625 273.933594 L 242.527344 287.984375 L 229.957031 290.117188 Z M 227.574219 276.066406 " clip-rule="nonzero"/></clipPath><clipPath id="id31"><path d="M 227.574219 276.066406 L 240.140625 273.933594 L 242.527344 287.984375 L 229.957031 290.117188 Z M 227.574219 276.066406 " clip-rule="nonzero"/></clipPath></defs><rect x="-37.5" width="450" fill="#ffffff" y="-37.499999" height="449.999989" fill-opacity="1"/><rect x="-37.5" width="450" fill="#ffffff" y="-37.499999" height="449.999989" fill-opacity="1"/><rect x="-37.5" width="450" fill="#ffde59" y="-37.499999" height="449.999989" fill-opacity="1"/><g mask="url(#id2)"><g transform="matrix(1, 0, 0, 1, 0, 0)"><g clip-path="url(#id21)"><g clip-path="url(#id3)"><path fill="#ffffff" d="M 340.074219 19.019531 L 301.730469 2.910156 L 263.382812 19.019531 L 225.039062 2.910156 L 186.691406 19.019531 L 148.347656 2.910156 L 110 19.019531 L 71.65625 2.910156 L 33.316406 19.019531 L -5.550781 2.695312 L -4.511719 0.21875 L 33.316406 16.109375 L 71.65625 0 L 110 16.109375 L 148.347656 0 L 186.691406 16.109375 L 225.039062 0 L 263.382812 16.109375 L 301.730469 0 L 340.074219 16.109375 L 377.90625 0.21875 L 378.949219 2.695312 Z M 340.074219 19.019531 " fill-opacity="1" fill-rule="nonzero"/></g><g clip-path="url(#id4)"><path fill="#ffffff" d="M 340.074219 39.960938 L 301.730469 23.851562 L 263.382812 39.960938 L 225.039062 23.851562 L 186.691406 39.960938 L 148.347656 23.851562 L 110 39.960938 L 71.65625 23.851562 L 33.316406 39.960938 L -5.550781 23.636719 L -4.511719 21.160156 L 33.316406 37.050781 L 71.65625 20.941406 L 110 37.050781 L 148.347656 20.941406 L 186.691406 37.050781 L 225.039062 20.941406 L 263.382812 37.050781 L 301.730469 20.941406 L 340.074219 37.050781 L 377.90625 21.160156 L 378.949219 23.636719 Z M 340.074219 39.960938 " fill-opacity="1" fill-rule="nonzero"/></g><g clip-path="url(#id5)"><path fill="#ffffff" d="M 340.074219 60.898438 L 301.730469 44.792969 L 263.382812 60.898438 L 225.039062 44.792969 L 186.691406 60.898438 L 148.347656 44.792969 L 110 60.898438 L 71.65625 44.792969 L 33.316406 60.898438 L -5.550781 44.578125 L -4.511719 42.101562 L 33.316406 57.988281 L 71.65625 41.882812 L 110 57.988281 L 148.347656 41.882812 L 186.691406 57.988281 L 225.039062 41.882812 L 263.382812 57.988281 L 301.730469 41.882812 L 340.074219 57.988281 L 377.90625 42.101562 L 378.949219 44.578125 Z M 340.074219 60.898438 " fill-opacity="1" fill-rule="nonzero"/></g><g clip-path="url(#id6)"><path fill="#ffffff" d="M 340.074219 81.839844 L 301.730469 65.730469 L 263.382812 81.839844 L 225.039062 65.730469 L 186.691406 81.839844 L 148.347656 65.730469 L 110 81.839844 L 71.65625 65.730469 L 33.316406 81.839844 L -5.550781 65.519531 L -4.511719 63.042969 L 33.316406 78.929688 L 71.65625 62.820312 L 110 78.929688 L 148.347656 62.820312 L 186.691406 78.929688 L 225.039062 62.820312 L 263.382812 78.929688 L 301.730469 62.820312 L 340.074219 78.929688 L 377.90625 63.042969 L 378.949219 65.519531 Z M 340.074219 81.839844 " fill-opacity="1" fill-rule="nonzero"/></g><g clip-path="url(#id7)"><path fill="#ffffff" d="M 340.074219 102.78125 L 301.730469 86.671875 L 263.382812 102.78125 L 225.039062 86.671875 L 186.691406 102.78125 L 148.347656 86.671875 L 110 102.78125 L 71.65625 86.671875 L 33.316406 102.78125 L -5.550781 86.457031 L -4.511719 83.984375 L 33.316406 99.871094 L 71.65625 83.761719 L 110 99.871094 L 148.347656 83.761719 L 186.691406 99.871094 L 225.039062 83.761719 L 263.382812 99.871094 L 301.730469 83.761719 L 340.074219 99.871094 L 377.90625 83.984375 L 378.949219 86.457031 Z M 340.074219 102.78125 " fill-opacity="1" fill-rule="nonzero"/></g><g clip-path="url(#id8)"><path fill="#ffffff" d="M 340.074219 123.722656 L 301.730469 107.613281 L 263.382812 123.722656 L 225.039062 107.613281 L 186.691406 123.722656 L 148.347656 107.613281 L 110 123.722656 L 71.65625 107.613281 L 33.316406 123.722656 L -5.550781 107.398438 L -4.511719 104.921875 L 33.316406 120.8125 L 71.65625 104.703125 L 110 120.8125 L 148.347656 104.703125 L 186.691406 120.8125 L 225.039062 104.703125 L 263.382812 120.8125 L 301.730469 104.703125 L 340.074219 120.8125 L 377.90625 104.921875 L 378.949219 107.398438 Z M 340.074219 123.722656 " fill-opacity="1" fill-rule="nonzero"/></g><g clip-path="url(#id9)"><path fill="#ffffff" d="M 340.074219 144.664062 L 301.730469 128.554688 L 263.382812 144.664062 L 225.039062 128.554688 L 186.691406 144.664062 L 148.347656 128.554688 L 110 144.664062 L 71.65625 128.554688 L 33.316406 144.664062 L -5.550781 128.339844 L -4.511719 125.863281 L 33.316406 141.753906 L 71.65625 125.644531 L 110 141.753906 L 148.347656 125.644531 L 186.691406 141.753906 L 225.039062 125.644531 L 263.382812 141.753906 L 301.730469 125.644531 L 340.074219 141.753906 L 377.90625 125.863281 L 378.949219 128.339844 Z M 340.074219 144.664062 " fill-opacity="1" fill-rule="nonzero"/></g><g clip-path="url(#id10)"><path fill="#ffffff" d="M 340.074219 165.601562 L 301.730469 149.496094 L 263.382812 165.601562 L 225.039062 149.496094 L 186.691406 165.601562 L 148.347656 149.496094 L 110 165.601562 L 71.65625 149.496094 L 33.316406 165.601562 L -5.550781 149.28125 L -4.511719 146.804688 L 33.316406 162.691406 L 71.65625 146.585938 L 110 162.691406 L 148.347656 146.585938 L 186.691406 162.691406 L 225.039062 146.585938 L 263.382812 162.691406 L 301.730469 146.585938 L 340.074219 162.691406 L 377.90625 146.804688 L 378.949219 149.28125 Z M 340.074219 165.601562 " fill-opacity="1" fill-rule="nonzero"/></g><g clip-path="url(#id11)"><path fill="#ffffff" d="M 340.074219 186.542969 L 301.730469 170.4375 L 263.382812 186.542969 L 225.039062 170.4375 L 186.691406 186.542969 L 148.347656 170.4375 L 110 186.542969 L 71.65625 170.4375 L 33.316406 186.542969 L -5.550781 170.222656 L -4.511719 167.746094 L 33.316406 183.632812 L 71.65625 167.527344 L 110 183.632812 L 148.347656 167.527344 L 186.691406 183.632812 L 225.039062 167.527344 L 263.382812 183.632812 L 301.730469 167.527344 L 340.074219 183.632812 L 377.90625 167.746094 L 378.949219 170.222656 Z M 340.074219 186.542969 " fill-opacity="1" fill-rule="nonzero"/></g><g clip-path="url(#id12)"><path fill="#ffffff" d="M 340.074219 207.484375 L 301.730469 191.375 L 263.382812 207.484375 L 225.039062 191.375 L 186.691406 207.484375 L 148.347656 191.375 L 110 207.484375 L 71.65625 191.375 L 33.316406 207.484375 L -5.550781 191.160156 L -4.511719 188.6875 L 33.316406 204.574219 L 71.65625 188.464844 L 110 204.574219 L 148.347656 188.464844 L 186.691406 204.574219 L 225.039062 188.464844 L 263.382812 204.574219 L 301.730469 188.464844 L 340.074219 204.574219 L 377.90625 188.6875 L 378.949219 191.160156 Z M 340.074219 207.484375 " fill-opacity="1" fill-rule="nonzero"/></g><g clip-path="url(#id13)"><path fill="#ffffff" d="M 340.074219 228.425781 L 301.730469 212.316406 L 263.382812 228.425781 L 225.039062 212.316406 L 186.691406 228.425781 L 148.347656 212.316406 L 110 228.425781 L 71.65625 212.316406 L 33.316406 228.425781 L -5.550781 212.101562 L -4.511719 209.628906 L 33.316406 225.515625 L 71.65625 209.40625 L 110 225.515625 L 148.347656 209.40625 L 186.691406 225.515625 L 225.039062 209.40625 L 263.382812 225.515625 L 301.730469 209.40625 L 340.074219 225.515625 L 377.90625 209.628906 L 378.949219 212.101562 Z M 340.074219 228.425781 " fill-opacity="1" fill-rule="nonzero"/></g><g clip-path="url(#id14)"><path fill="#ffffff" d="M 340.074219 249.367188 L 301.730469 233.257812 L 263.382812 249.367188 L 225.039062 233.257812 L 186.691406 249.367188 L 148.347656 233.257812 L 110 249.367188 L 71.65625 233.257812 L 33.316406 249.367188 L -5.550781 233.042969 L -4.511719 230.566406 L 33.316406 246.457031 L 71.65625 230.347656 L 110 246.457031 L 148.347656 230.347656 L 186.691406 246.457031 L 225.039062 230.347656 L 263.382812 246.457031 L 301.730469 230.347656 L 340.074219 246.457031 L 377.90625 230.566406 L 378.949219 233.042969 Z M 340.074219 249.367188 " fill-opacity="1" fill-rule="nonzero"/></g><g clip-path="url(#id15)"><path fill="#ffffff" d="M 340.074219 270.308594 L 301.730469 254.199219 L 263.382812 270.308594 L 225.039062 254.199219 L 186.691406 270.308594 L 148.347656 254.199219 L 110 270.308594 L 71.65625 254.199219 L 33.316406 270.308594 L -5.550781 253.984375 L -4.511719 251.507812 L 33.316406 267.398438 L 71.65625 251.289062 L 110 267.398438 L 148.347656 251.289062 L 186.691406 267.398438 L 225.039062 251.289062 L 263.382812 267.398438 L 301.730469 251.289062 L 340.074219 267.398438 L 377.90625 251.507812 L 378.949219 253.984375 Z M 340.074219 270.308594 " fill-opacity="1" fill-rule="nonzero"/></g><g clip-path="url(#id16)"><path fill="#ffffff" d="M 340.074219 291.246094 L 301.730469 275.140625 L 263.382812 291.246094 L 225.039062 275.140625 L 186.691406 291.246094 L 148.347656 275.140625 L 110 291.246094 L 71.65625 275.140625 L 33.316406 291.246094 L -5.550781 274.925781 L -4.511719 272.449219 L 33.316406 288.335938 L 71.65625 272.230469 L 110 288.335938 L 148.347656 272.230469 L 186.691406 288.335938 L 225.039062 272.230469 L 263.382812 288.335938 L 301.730469 272.230469 L 340.074219 288.335938 L 377.90625 272.449219 L 378.949219 274.925781 Z M 340.074219 291.246094 " fill-opacity="1" fill-rule="nonzero"/></g><g clip-path="url(#id17)"><path fill="#ffffff" d="M 340.074219 312.1875 L 301.730469 296.082031 L 263.382812 312.1875 L 225.039062 296.082031 L 186.691406 312.1875 L 148.347656 296.082031 L 110 312.1875 L 71.65625 296.082031 L 33.316406 312.1875 L -5.550781 295.867188 L -4.511719 293.390625 L 33.316406 309.277344 L 71.65625 293.171875 L 110 309.277344 L 148.347656 293.171875 L 186.691406 309.277344 L 225.039062 293.171875 L 263.382812 309.277344 L 301.730469 293.171875 L 340.074219 309.277344 L 377.90625 293.390625 L 378.949219 295.867188 Z M 340.074219 312.1875 " fill-opacity="1" fill-rule="nonzero"/></g><g clip-path="url(#id18)"><path fill="#ffffff" d="M 340.074219 333.128906 L 301.730469 317.019531 L 263.382812 333.128906 L 225.039062 317.019531 L 186.691406 333.128906 L 148.347656 317.019531 L 110 333.128906 L 71.65625 317.019531 L 33.316406 333.128906 L -5.550781 316.804688 L -4.511719 314.332031 L 33.316406 330.21875 L 71.65625 314.109375 L 110 330.21875 L 148.347656 314.109375 L 186.691406 330.21875 L 225.039062 314.109375 L 263.382812 330.21875 L 301.730469 314.109375 L 340.074219 330.21875 L 377.90625 314.332031 L 378.949219 316.804688 Z M 340.074219 333.128906 " fill-opacity="1" fill-rule="nonzero"/></g><g clip-path="url(#id19)"><path fill="#ffffff" d="M 340.074219 354.070312 L 301.730469 337.960938 L 263.382812 354.070312 L 225.039062 337.960938 L 186.691406 354.070312 L 148.347656 337.960938 L 110 354.070312 L 71.65625 337.960938 L 33.316406 354.070312 L -5.550781 337.746094 L -4.511719 335.273438 L 33.316406 351.160156 L 71.65625 335.050781 L 110 351.160156 L 148.347656 335.050781 L 186.691406 351.160156 L 225.039062 335.050781 L 263.382812 351.160156 L 301.730469 335.050781 L 340.074219 351.160156 L 377.90625 335.273438 L 378.949219 337.746094 Z M 340.074219 354.070312 " fill-opacity="1" fill-rule="nonzero"/></g><g clip-path="url(#id20)"><path fill="#ffffff" d="M 340.074219 375.011719 L 301.730469 358.902344 L 263.382812 375.011719 L 225.039062 358.902344 L 186.691406 375.011719 L 148.347656 358.902344 L 110 375.011719 L 71.65625 358.902344 L 33.316406 375.011719 L -5.550781 358.6875 L -4.511719 356.210938 L 33.316406 372.101562 L 71.65625 355.992188 L 110 372.101562 L 148.347656 355.992188 L 186.691406 372.101562 L 225.039062 355.992188 L 263.382812 372.101562 L 301.730469 355.992188 L 340.074219 372.101562 L 377.90625 356.210938 L 378.949219 358.6875 Z M 340.074219 375.011719 " fill-opacity="1" fill-rule="nonzero"/></g></g></g></g><g clip-path="url(#id22)"><path fill="#ffffff" d="M 190.875 48.375 C 112.273438 48.375 48.375 112.332031 48.375 190.875 C 48.375 269.480469 112.273438 333.375 190.875 333.375 C 269.421875 333.375 333.375 269.480469 333.375 190.875 C 333.375 112.332031 269.421875 48.375 190.875 48.375 Z M 190.875 322.261719 C 118.429688 322.261719 59.492188 263.324219 59.492188 190.875 C 59.492188 118.429688 118.429688 59.492188 190.875 59.492188 C 263.324219 59.492188 322.261719 118.429688 322.261719 190.875 C 322.261719 263.324219 263.324219 322.261719 190.875 322.261719 Z M 190.875 322.261719 " fill-opacity="1" fill-rule="nonzero"/></g><path fill="#ffffff" d="M 190.875 66.902344 C 122.535156 66.902344 66.902344 122.535156 66.902344 190.875 C 66.902344 259.21875 122.535156 314.851562 190.875 314.851562 C 259.21875 314.851562 314.851562 259.21875 314.851562 190.875 C 314.851562 122.535156 259.21875 66.902344 190.875 66.902344 Z M 190.875 66.902344 " fill-opacity="1" fill-rule="nonzero"/><g clip-path="url(#id23)"><path stroke-linecap="butt" transform="matrix(0.346195, 0, 0, 0.345627, 11.183148, 64.982156)" fill="none" stroke-linejoin="miter" d="M 239.028446 548.420426 C 250.88728 553.235041 292.985578 591.571128 300.872662 550.918149 C 308.996696 509.067167 343.659245 459.067505 363.337463 474.087747 C 379.980451 486.791097 300.206942 526.992 314.615821 542.170469 C 326.99369 555.212876 368.606802 520.165645 375.207581 503.438814 C 385.91551 476.325526 362.265542 455.247459 341.470269 459.090109 C 293.312796 468.01862 292.703493 505.846122 295.253537 526.551225 C 297.284546 543.165037 322.593172 553.268947 340.229097 550.918149 C 370.829629 546.838158 403.83352 516.481221 392.696823 489.074083 C 389.300525 480.733272 372.70267 459.090109 372.70267 459.090109 L 411.43852 418.493639 L 449.5425 444.103773 C 455.951461 442.171146 459.460593 437.706891 458.907707 429.739042 C 471.782045 438.125062 482.230457 435.446508 489.519522 418.493639 C 453.604517 404.43406 429.221129 382.530954 405.819396 339.78712 C 391.410517 313.476268 378.378211 352.01579 392.696823 369.771094 C 380.759005 377.128639 376.753404 386.215377 390.191912 399.122161 C 399.478135 406.909179 407.038001 411.350831 420.183141 395.381228 C 427.066003 387.017813 449.847151 351.970582 449.847151 351.970582 C 416.121123 337.911003 392.696823 314.482138 385.204657 294.805508 C 407.320085 258.854124 435.167472 240.375497 468.904783 217.353501 C 573.535582 250.773257 652.948023 332.022706 716.890948 405.372119 C 702.188701 466.492862 665.551561 515.64488 625.066787 525.308015 C 569.9926 492.057788 533.062092 456.468066 500.137184 420.369757 C 520.774489 381.219932 546.511883 343.855809 581.343683 346.658683 C 610.92871 349.043387 671.610737 390.826557 674.420299 420.369757 C 676.078956 437.808608 671.926671 474.087747 618.195207 462.220739 C 595.086842 457.112275 553.47373 398.455348 569.473565 381.016497 C 596.621381 346.274418 659.063616 407.621199 678.166382 434.112883 C 690.397567 451.065751 715.390258 459.971658 737.505686 445.979891 C 768.501136 426.382374 791.304851 439.944669 798.097447 467.227486 " stroke="#000000" stroke-width="3.082" stroke-opacity="1" stroke-miterlimit="4"/></g><g clip-path="url(#id24)"><g clip-path="url(#id25)"><g clip-path="url(#id26)"><g clip-path="url(#id27)"><path fill="#dd2e44" d="M 143.851562 277.421875 C 145.378906 274.050781 150.382812 274.808594 149.980469 279.328125 C 153.113281 276.042969 156.984375 279.300781 155.457031 282.675781 C 153.796875 286.339844 145.890625 288.359375 145.890625 288.359375 C 145.890625 288.359375 142.195312 281.085938 143.851562 277.421875 Z M 143.851562 277.421875 " fill-opacity="1" fill-rule="nonzero"/></g></g></g></g><g clip-path="url(#id28)"><g clip-path="url(#id29)"><g clip-path="url(#id30)"><g clip-path="url(#id31)"><path fill="#dd2e44" d="M 228.410156 281.089844 C 227.792969 277.441406 232.363281 275.273438 234.558594 279.246094 C 235.316406 274.769531 240.347656 275.308594 240.96875 278.957031 C 241.640625 282.925781 236.214844 289.019531 236.214844 289.019531 C 236.214844 289.019531 229.085938 285.054688 228.410156 281.089844 Z M 228.410156 281.089844 " fill-opacity="1" fill-rule="nonzero"/></g></g></g></g><g fill="#302f2f" fill-opacity="1"><g transform="translate(102.178003, 198.484127)"><g><path d="M -24.929688 -23.417969 C -25.070312 -16.652344 -4.3125 -12.632812 -0.164062 -9.445312 C 0.984375 -8.492188 2.105469 -10.933594 1.121094 -11.675781 C -0.757812 -13.148438 -5.433594 -14.476562 -9.816406 -16.234375 C -5.875 -22.871094 -7.511719 -31.144531 -16.394531 -33.453125 C -23.773438 -35.371094 -28.800781 -29.769531 -29.820312 -23.121094 C -30.871094 -15.910156 -27.113281 -9.054688 -20.957031 -8.238281 C -18.917969 -7.96875 -16.742188 -8.386719 -14.898438 -9.886719 C -14.078125 -10.390625 -15 -12.304688 -16.011719 -11.777344 C -22.503906 -7.597656 -28.71875 -15.4375 -27.273438 -23.160156 C -26.3125 -27.933594 -22.679688 -31.882812 -17.277344 -30.695312 C -11.140625 -29.363281 -7.902344 -23.941406 -11.605469 -16.941406 C -16.269531 -18.738281 -22.257812 -20.472656 -23.054688 -24.0625 C -23.386719 -25.472656 -24.914062 -24.59375 -24.929688 -23.417969 Z M -24.929688 -23.417969 "/></g></g></g><g fill="#302f2f" fill-opacity="1"><g transform="translate(106.228428, 169.927478)"><g><path d="M -14.382812 -16.417969 C -15.648438 -10.871094 -11.667969 -4.542969 -7.308594 -1.648438 C -3.671875 0.789062 0.167969 0.929688 1.582031 -2.679688 C 2.796875 -5.816406 0.839844 -8.761719 -1.234375 -11.660156 C 1.730469 -9.554688 4.246094 -10.121094 5.023438 -11.972656 C 6.667969 -15.890625 2.945312 -20.898438 -0.808594 -24.75 C -1.34375 -25.28125 -2.402344 -24.207031 -2.027344 -23.894531 C 1.839844 -20.195312 4.199219 -15.558594 3.386719 -13.621094 C 2.933594 -12.542969 1.863281 -12.890625 0.140625 -13.972656 C -2.351562 -15.523438 -5.710938 -18.25 -7.585938 -19.695312 C -8.316406 -20.253906 -9.980469 -18.21875 -9.082031 -17.585938 C -1.964844 -12.574219 1.929688 -4.355469 -1.273438 -3.117188 C -3.214844 -2.359375 -7.019531 -4.515625 -9.3125 -7.503906 C -11.441406 -10.269531 -12.59375 -13.4375 -12.117188 -16.023438 C -11.804688 -17.972656 -10.304688 -19.976562 -8.109375 -21.230469 C -7.355469 -21.574219 -8.25 -23.671875 -8.921875 -23.394531 C -12.039062 -22.121094 -13.808594 -19.113281 -14.382812 -16.417969 Z M -14.382812 -16.417969 "/></g></g></g><g fill="#302f2f" fill-opacity="1"><g transform="translate(113.31361, 152.680526)"><g><path d="M 3.335938 -4.171875 C 4.628906 -6 5 -8.628906 3.941406 -10.8125 C 5.824219 -13.089844 6.355469 -16.792969 2.640625 -22.300781 C 2.253906 -22.898438 0.992188 -22.117188 1.273438 -21.699219 C 4.453125 -17.066406 4.261719 -14.203125 2.980469 -12.308594 C -0.484375 -16.519531 -5.796875 -14.925781 -11.261719 -18.347656 C -11.625 -20.230469 -14.152344 -19.910156 -13.824219 -16.8125 C -13.515625 -13.441406 -11.34375 -9.320312 -8.039062 -4.375 C -7.753906 -3.957031 -6.507812 -4.632812 -6.789062 -5.050781 C -9.746094 -9.761719 -11.460938 -12.558594 -12.171875 -16.257812 C -8.410156 -13.480469 -2.566406 -13.867188 -0.144531 -11.777344 C -1.058594 -10.925781 0.351562 -9.011719 1.871094 -9.507812 C 2.355469 -8.558594 2.382812 -7.015625 1.636719 -5.828125 C 0.601562 -4.21875 -1.539062 -3.976562 -3.707031 -6.515625 C -4.183594 -7.066406 -5.605469 -5.882812 -4.925781 -4.972656 C -2.21875 -1.222656 1.460938 -1.492188 3.335938 -4.171875 Z M 3.335938 -4.171875 "/></g></g></g><g fill="#302f2f" fill-opacity="1"><g transform="translate(122.673509, 138.970192)"><g><path d="M 2.863281 -2.375 C 5.859375 -5.710938 5.109375 -11.402344 2.203125 -17.386719 C 1.882812 -18.070312 0.546875 -17.53125 0.761719 -17.074219 C 2.457031 -13.695312 4.191406 -7.207031 1.636719 -4.480469 C -0.214844 -2.503906 -2.929688 -4.726562 -5.707031 -8.734375 C -6.886719 -10.414062 -8.347656 -12.742188 -9.78125 -15.109375 L -6.238281 -18.894531 C -5.921875 -19.300781 -6.796875 -20.757812 -7.546875 -20.5 L -10.898438 -16.921875 C -12.832031 -20.394531 -14.695312 -23.867188 -15.867188 -26.375 C -16.257812 -27.1875 -18.460938 -25.859375 -18.105469 -25.078125 C -16.859375 -22.308594 -14.914062 -18.441406 -12.847656 -14.84375 L -14.3125 -13.273438 C -14.425781 -12.609375 -13.761719 -11.542969 -12.878906 -11.800781 L -11.730469 -13.027344 C -7.890625 -6.8125 -1.949219 2.972656 2.863281 -2.375 Z M 2.863281 -2.375 "/></g></g></g><g fill="#302f2f" fill-opacity="1"><g transform="translate(129.828796, 130.751824)"><g><path d="M -3.871094 -22.015625 C -7.285156 -19.714844 -8.890625 -14.324219 -6.878906 -8.613281 C -4.941406 -3.082031 0.0351562 -0.0273438 5.191406 -3.445312 C 7.804688 -5.179688 12.71875 -9.890625 9.441406 -20.417969 C 9.226562 -21.078125 7.820312 -20.753906 7.960938 -20.269531 C 10.292969 -12.324219 7.144531 -7.09375 3.828125 -5.34375 C 0.941406 -3.808594 -1.957031 -5.105469 -3.519531 -8.328125 C 1.929688 -10.375 4.539062 -14.476562 3.75 -18.535156 C 3.082031 -21.980469 -0.195312 -24.519531 -3.871094 -22.015625 Z M -2.964844 -19.941406 C -0.679688 -21.71875 0.882812 -19.558594 1.242188 -17.117188 C 1.675781 -14.199219 -0.355469 -11.792969 -4.246094 -9.949219 C -5.730469 -13.53125 -5.101562 -18.277344 -2.964844 -19.941406 Z M -2.964844 -19.941406 "/></g></g></g><g fill="#302f2f" fill-opacity="1"><g transform="translate(142.976301, 120.583902)"><g><path d="M -7.941406 -31.171875 C -9.320312 -27.859375 -8.558594 -21.035156 -6.855469 -14.242188 C -4.855469 -6.230469 -1.976562 0.765625 3.132812 -1.1875 C 8.550781 -3.253906 8.371094 -9.601562 7.832031 -16.015625 C 7.757812 -16.828125 6.261719 -16.648438 6.320312 -16.148438 C 6.710938 -13.109375 7.214844 -5.398438 2.851562 -3.640625 C 0.277344 -2.601562 -1.753906 -6.496094 -3.234375 -11.332031 C -0.28125 -16.625 0.492188 -22.113281 0.0351562 -26.921875 C -0.671875 -34.523438 -6.03125 -35.84375 -7.941406 -31.171875 Z M -4.957031 -31.265625 C -3.621094 -31.839844 -2.601562 -28.722656 -2.277344 -24.054688 C -2.082031 -20.589844 -2.726562 -17.203125 -3.957031 -13.8125 C -4.894531 -17.558594 -5.496094 -21.277344 -5.738281 -23.273438 C -6.277344 -27.558594 -6.335938 -30.671875 -4.957031 -31.265625 Z M -4.957031 -31.265625 "/></g></g></g><g fill="#302f2f" fill-opacity="1"><g transform="translate(152.64311, 114.839638)"><g><path d="M 3.214844 -22.121094 C -0.75 -21.003906 -3.960938 -16.386719 -3.835938 -10.332031 C -3.726562 -4.472656 0.0429688 -0.015625 6.007812 -1.648438 C 9.03125 -2.480469 15.175781 -5.414062 15.359375 -16.4375 C 15.359375 -17.132812 13.921875 -17.265625 13.902344 -16.761719 C 13.632812 -8.484375 9.003906 -4.503906 5.308594 -3.878906 C 2.085938 -3.324219 -0.261719 -5.460938 -0.734375 -9.011719 C 5.078125 -9.25 8.839844 -12.328125 9.359375 -16.429688 C 9.804688 -19.910156 7.488281 -23.347656 3.214844 -22.121094 Z M 3.425781 -19.867188 C 6.152344 -20.839844 6.957031 -18.300781 6.535156 -15.871094 C 6.035156 -12.964844 3.351562 -11.3125 -0.921875 -10.777344 C -1.207031 -14.644531 0.871094 -18.957031 3.425781 -19.867188 Z M 3.425781 -19.867188 "/></g></g></g><g fill="#302f2f" fill-opacity="1"><g transform="translate(168.079383, 109.220437)"><g><path d="M -1.039062 -8.351562 C 0.222656 -12.921875 0.488281 -16.09375 0.765625 -19.21875 C 2.164062 -17.941406 4.851562 -16.359375 3.933594 -14.5 C 2.382812 -11.347656 0.957031 -8.027344 1.519531 -4.996094 C 2.019531 -2.332031 3.824219 -0.363281 6.839844 -0.734375 C 11.253906 -1.246094 14.148438 -5.953125 15.722656 -13.136719 C 15.851562 -13.773438 14.453125 -14.199219 14.347656 -13.710938 C 12.894531 -6.925781 9.785156 -3.460938 7.238281 -3.125 C 5.710938 -2.910156 4.785156 -3.890625 4.476562 -5.449219 C 3.914062 -8.195312 5.347656 -11.472656 6.988281 -14.355469 C 8.304688 -16.664062 3.742188 -19.25 1.1875 -21.472656 C 1.585938 -27.507812 -5.15625 -24.515625 -0.644531 -20.261719 C -0.96875 -16.035156 -1.214844 -13.578125 -2.398438 -8.828125 C -2.605469 -8.367188 -1.160156 -7.949219 -1.039062 -8.351562 Z M -1.039062 -8.351562 "/></g></g></g><g fill="#302f2f" fill-opacity="1"><g transform="translate(182.65384, 106.871956)"><g><path d="M 4.007812 -27.601562 C 3.347656 -26.640625 2.070312 -24.71875 1.457031 -23.710938 C 0.890625 -22.707031 2.960938 -22.371094 3.535156 -23.1875 L 6.191406 -26.804688 C 6.855469 -27.671875 4.625 -28.515625 4.007812 -27.601562 Z M 1.375 -18.894531 C -0.257812 -11.957031 -0.9375 -9.167969 -1.785156 -4.789062 C -2.4375 -1.347656 -1.664062 0.488281 1.046875 0.425781 C 5.105469 0.304688 7.972656 -6.21875 9.890625 -10.691406 C 10.234375 -11.453125 8.761719 -12 8.550781 -11.429688 C 7.042969 -7.160156 3.984375 -1.988281 1.65625 -1.796875 C 0.257812 -1.691406 0.519531 -3.292969 0.90625 -5.226562 C 1.683594 -9.089844 2.121094 -10.976562 3.953125 -18.671875 C 4.109375 -19.425781 1.652344 -20.074219 1.375 -18.894531 Z M 1.375 -18.894531 "/></g></g></g><g fill="#302f2f" fill-opacity="1"><g transform="translate(189.784889, 105.968597)"><g><path d="M 11.664062 -18.449219 C 5.988281 -18.085938 1.046875 -12.476562 -0.492188 -7.476562 C -1.796875 -3.300781 -0.84375 0.421875 3.019531 0.753906 C 6.371094 1.03125 8.640625 -1.679688 10.832031 -4.492188 C 9.652344 -1.050781 10.910156 1.203125 12.90625 1.421875 C 17.128906 1.886719 20.875 -3.101562 23.507812 -7.792969 C 23.859375 -8.457031 22.53125 -9.167969 22.339844 -8.71875 C 19.890625 -3.960938 16.113281 -0.386719 14.023438 -0.617188 C 12.863281 -0.742188 12.890625 -1.867188 13.4375 -3.828125 C 14.21875 -6.65625 15.878906 -10.652344 16.734375 -12.863281 C 17.0625 -13.71875 14.640625 -14.738281 14.289062 -13.695312 C 11.5 -5.449219 4.726562 0.613281 2.628906 -2.105469 C 1.351562 -3.75 2.339844 -8.011719 4.554688 -11.054688 C 6.605469 -13.882812 9.316406 -15.886719 11.929688 -16.164062 C 13.886719 -16.417969 16.230469 -15.546875 18.058594 -13.796875 C 18.601562 -13.171875 20.359375 -14.625 19.90625 -15.191406 C 17.796875 -17.820312 14.414062 -18.660156 11.664062 -18.449219 Z M 11.664062 -18.449219 "/></g></g></g><g fill="#302f2f" fill-opacity="1"><g transform="translate(208.888016, 108.387524)"><g/></g></g><g fill="#302f2f" fill-opacity="1"><g transform="translate(215.209251, 107.94121)"><g><path d="M 36.605469 -17.46875 C 31.894531 -20.046875 27.214844 -20.117188 23.601562 -18.714844 C 20.03125 -17.292969 16.503906 -13.089844 18.441406 -8.5 C 18.601562 -7.511719 20.71875 -7.703125 20.625 -8.8125 C 19.757812 -16.589844 28.335938 -19.144531 35.371094 -15.265625 C 40.636719 -12.339844 41.195312 -8.539062 38.628906 -5.625 C 35.84375 -2.507812 31.132812 -2.914062 26.511719 -5.761719 C 28.492188 -7.773438 30.953125 -11.277344 34.101562 -11.019531 C 35.539062 -10.9375 35.671875 -12.5625 34.53125 -12.910156 C 28.878906 -14.722656 23.84375 -5.234375 16.203125 1.109375 C 14.082031 -3.628906 8.359375 -5.90625 5.78125 -1.296875 C 4.417969 1.148438 5.769531 3.570312 8.117188 4.828125 C 10.070312 5.824219 12.71875 6.027344 15.054688 4.734375 C 16.457031 7.554688 17.605469 9.757812 20.667969 11.558594 C 26.074219 14.722656 30.761719 13.6875 34.015625 8.804688 C 36.679688 4.828125 34.824219 0.179688 32.003906 -1.96875 C 34.777344 -1.011719 38.988281 -1.457031 41.203125 -4.296875 C 44.453125 -8.488281 42.671875 -14.160156 36.605469 -17.46875 Z M 25.074219 -4.363281 C 27.011719 -3.429688 28.199219 -2.683594 29.691406 -1.515625 C 32.226562 0.480469 33.761719 3.847656 31.484375 7.398438 C 27.464844 13.613281 19.6875 10.132812 17.035156 3.410156 C 20.21875 1.035156 23.308594 -2.550781 25.074219 -4.363281 Z M 12.121094 -0.761719 C 13.082031 -0.0859375 13.757812 1.125 14.347656 2.394531 C 12.414062 3.53125 11.050781 3.699219 9.835938 3.101562 C 5.554688 0.910156 8.992188 -3.128906 12.121094 -0.761719 Z M 12.121094 -0.761719 "/></g></g></g><g fill="#302f2f" fill-opacity="1"><g transform="translate(245.135791, 125.088657)"><g><path d="M 6.078125 -5.820312 C 10.5 -7.539062 13.203125 -9.21875 15.875 -10.863281 C 15.683594 -8.976562 16.019531 -5.878906 13.980469 -5.503906 C 10.527344 -4.863281 7.011719 -4.023438 4.914062 -1.761719 C 3.078125 0.226562 2.574219 2.847656 4.671875 5.046875 C 7.71875 8.28125 13.222656 7.792969 19.925781 4.765625 C 20.515625 4.488281 20.023438 3.113281 19.5625 3.320312 C 13.253906 6.207031 8.621094 5.785156 6.828125 3.941406 C 5.746094 2.84375 5.980469 1.515625 7.042969 0.335938 C 8.910156 -1.753906 12.394531 -2.558594 15.6875 -2.964844 C 18.324219 -3.289062 17.675781 -8.492188 17.929688 -11.867188 C 23.011719 -15.15625 16.585938 -18.773438 15.867188 -12.613281 C 12.285156 -10.355469 10.164062 -9.082031 5.648438 -7.195312 C 5.15625 -7.085938 5.683594 -5.679688 6.078125 -5.820312 Z M 6.078125 -5.820312 "/></g></g></g><g fill="#302f2f" fill-opacity="1"><g transform="translate(255.716315, 135.362082)"><g><path d="M 20.527344 -10.710938 C 21.117188 -9.984375 22.144531 -9.675781 23.082031 -10.371094 C 24.019531 -11.070312 23.992188 -12.070312 23.40625 -12.796875 C 22.820312 -13.523438 21.789062 -13.832031 20.851562 -13.132812 C 19.914062 -12.4375 19.941406 -11.4375 20.527344 -10.710938 Z M 0.28125 1.09375 C 2.976562 4.5 10.125 3.164062 14.65625 1.785156 C 15.441406 1.570312 15.0625 0.132812 14.480469 0.304688 C 10.210938 1.714844 4.148438 2.234375 2.429688 0.257812 C 1.511719 -0.804688 2.953125 -1.546875 4.734375 -2.386719 C 8.300781 -4.070312 10.078125 -4.84375 17.347656 -7.957031 C 18.046875 -8.28125 17.101562 -10.640625 15.988281 -10.160156 C 9.445312 -7.335938 6.800781 -6.21875 2.777344 -4.289062 C -0.371094 -2.761719 -1.382812 -1.042969 0.28125 1.09375 Z M 0.28125 1.09375 "/></g></g></g><g fill="#302f2f" fill-opacity="1"><g transform="translate(260.990228, 140.012453)"><g><path d="M 9.621094 19.058594 C 11.355469 22.3125 18.542969 22.402344 23.355469 21.902344 C 24.105469 21.820312 23.964844 20.359375 23.464844 20.414062 C 18.925781 21.03125 12.914062 20.476562 11.734375 18.355469 C 10.574219 16.277344 19.972656 15.34375 23.207031 14.363281 C 27.082031 13.199219 28.542969 11.570312 27.160156 8.871094 C 25.707031 6.046875 21.765625 5.5 18.566406 5.351562 C 21.929688 4.617188 23.628906 2.339844 22.4375 0.0078125 C 21.007812 -2.777344 16.75 -3.523438 13.261719 -3.414062 C 15.175781 -3.796875 16.128906 -4.089844 18.351562 -4.585938 C 19.535156 -4.847656 18.589844 -7.519531 17.574219 -7.242188 C 10.082031 -5.210938 6.113281 -4.316406 -0.222656 -2.898438 C -1.65625 -2.609375 -0.289062 0.152344 0.542969 -0.078125 C 3.488281 -0.90625 6.101562 -1.558594 8.949219 -2.171875 C 13.726562 -2.441406 18.933594 -1.40625 19.816406 0.347656 C 20.585938 1.894531 18.328125 2.621094 16.792969 3.015625 C 11.25 4.433594 7.660156 5.339844 4.128906 6.160156 C 3.152344 6.417969 4.382812 8.828125 5.402344 8.65625 C 7.089844 8.34375 10.175781 7.386719 13.042969 6.707031 C 17.214844 5.699219 23.589844 7.332031 24.664062 9.351562 C 25.5 10.917969 22.960938 11.421875 21.425781 11.816406 C 18.5 12.582031 14.15625 13.46875 11.984375 14.253906 C 9.457031 15.175781 8.414062 16.789062 9.621094 19.058594 Z M 9.621094 19.058594 "/></g></g></g><g fill="#302f2f" fill-opacity="1"><g transform="translate(273.038535, 162.778917)"><g><path d="M 21.328125 4.636719 C 19.042969 -0.574219 12.078125 -3.292969 6.855469 -3.023438 C 2.484375 -2.820312 -0.6875 -0.648438 0.324219 3.09375 C 1.214844 6.339844 4.539062 7.542969 7.929688 8.636719 C 4.296875 8.710938 2.609375 10.660156 3.085938 12.609375 C 4.097656 16.738281 10.070312 18.546875 15.375 19.410156 C 16.125 19.515625 16.335938 18.023438 15.847656 17.996094 C 10.539062 17.324219 5.882812 15.003906 5.382812 12.960938 C 5.105469 11.828125 6.171875 11.472656 8.203125 11.3125 C 11.125 11.078125 15.449219 11.269531 17.816406 11.3125 C 18.734375 11.328125 18.863281 8.703125 17.761719 8.730469 C 9.0625 8.9375 1.042969 4.648438 2.878906 1.746094 C 3.988281 -0.015625 8.328125 -0.546875 11.949219 0.488281 C 15.308594 1.445312 18.117188 3.304688 19.273438 5.667969 C 20.183594 7.417969 20.167969 9.921875 19.148438 12.238281 C 18.75 12.960938 20.714844 14.113281 21.09375 13.492188 C 22.839844 10.613281 22.472656 7.144531 21.328125 4.636719 Z M 21.328125 4.636719 "/></g></g></g><g fill="#302f2f" fill-opacity="1"><g transform="translate(277.510325, 181.016467)"><g><path d="M 8.414062 -0.0703125 C 12.8125 1.707031 15.929688 2.335938 19.003906 2.96875 C 17.574219 4.210938 15.695312 6.699219 13.953125 5.574219 C 11 3.671875 7.863281 1.875 4.789062 2.085938 C 2.085938 2.273438 -0.078125 3.839844 -0.0546875 6.878906 C -0.0546875 11.320312 4.289062 14.738281 11.246094 17.128906 C 11.863281 17.328125 12.445312 15.988281 11.96875 15.828125 C 5.398438 13.605469 2.3125 10.121094 2.269531 7.550781 C 2.234375 6.007812 3.316406 5.203125 4.898438 5.070312 C 7.691406 4.832031 10.78125 6.628906 13.457031 8.59375 C 15.597656 10.164062 18.695312 5.929688 21.191406 3.644531 C 27.144531 4.734375 24.945312 -2.304688 20.199219 1.6875 C 16.042969 0.878906 13.628906 0.351562 9.046875 -1.367188 C 8.613281 -1.625 8.03125 -0.238281 8.414062 -0.0703125 Z M 8.414062 -0.0703125 "/></g></g></g><g fill="#302f2f" fill-opacity="1"><g transform="translate(159.382578, 292.859313)"><g><path d="M 6.515625 -9.964844 L 4.835938 -10.363281 L 3.277344 -10.730469 L 2.734375 -10.859375 L 2.410156 -9.492188 L 2.953125 -9.363281 L 1.023438 -1.203125 L 0.480469 -1.332031 L 0.15625 0.0351562 L 0.699219 0.164062 L 2.257812 0.535156 L 3.9375 0.933594 C 6.023438 1.425781 7.324219 0.515625 7.789062 -1.445312 L 8.894531 -6.117188 C 9.359375 -8.078125 8.601562 -9.472656 6.515625 -9.964844 Z M 4.511719 -8.992188 L 6.035156 -8.632812 C 7.1875 -8.359375 7.605469 -7.621094 7.335938 -6.484375 L 6.230469 -1.8125 C 5.964844 -0.675781 5.257812 -0.203125 4.105469 -0.476562 L 2.582031 -0.835938 Z M 4.511719 -8.992188 "/></g></g></g><g fill="#302f2f" fill-opacity="1"><g transform="translate(167.31089, 294.702641)"><g><path d="M 4.507812 -7.585938 C 2.929688 -7.867188 1.910156 -7.152344 1.664062 -5.75 L 0.984375 -1.90625 C 0.738281 -0.503906 1.453125 0.515625 3.027344 0.792969 C 4.601562 1.070312 5.621094 0.359375 5.871094 -1.042969 L 5.96875 -1.59375 L 4.550781 -1.84375 L 4.417969 -1.105469 C 4.320312 -0.539062 3.9375 -0.117188 3.210938 -0.246094 C 2.488281 -0.375 2.269531 -0.898438 2.371094 -1.464844 L 2.652344 -3.074219 L 6.121094 -2.460938 L 6.546875 -4.886719 C 6.796875 -6.289062 6.082031 -7.308594 4.507812 -7.585938 Z M 2.835938 -4.097656 L 3.113281 -5.6875 C 3.214844 -6.253906 3.597656 -6.675781 4.324219 -6.546875 C 5.046875 -6.417969 5.261719 -5.894531 5.164062 -5.328125 L 4.882812 -3.734375 Z M 2.835938 -4.097656 "/></g></g></g><g fill="#302f2f" fill-opacity="1"><g transform="translate(173.690679, 295.821917)"><g><path d="M 4.113281 -7.808594 C 2.492188 -8.007812 1.550781 -7.304688 1.390625 -6.015625 L 1.292969 -5.207031 C 1.207031 -4.523438 1.558594 -3.867188 2.1875 -3.582031 L 4.066406 -2.621094 C 4.320312 -2.476562 4.464844 -2.21875 4.429688 -1.917969 L 4.355469 -1.328125 C 4.285156 -0.742188 3.878906 -0.324219 3.195312 -0.410156 C 2.511719 -0.492188 2.21875 -0.996094 2.292969 -1.585938 L 2.371094 -2.203125 L 0.941406 -2.382812 L 0.863281 -1.761719 C 0.714844 -0.570312 1.445312 0.4375 3.0625 0.636719 C 4.683594 0.839844 5.636719 0.0390625 5.785156 -1.152344 L 5.886719 -1.960938 C 5.96875 -2.644531 5.617188 -3.300781 4.992188 -3.585938 L 3.113281 -4.546875 C 2.855469 -4.691406 2.710938 -4.949219 2.746094 -5.253906 L 2.820312 -5.839844 C 2.894531 -6.425781 3.300781 -6.84375 3.984375 -6.757812 C 4.664062 -6.675781 4.957031 -6.171875 4.882812 -5.582031 L 4.808594 -4.964844 L 6.238281 -4.785156 L 6.3125 -5.40625 C 6.457031 -6.566406 5.730469 -7.605469 4.113281 -7.808594 Z M 4.113281 -7.808594 "/></g></g></g><g fill="#302f2f" fill-opacity="1"><g transform="translate(180.120409, 296.615352)"><g><path d="M 4.308594 -9.664062 L 4.867188 -9.625 L 4.703125 -7.375 C 4.394531 -7.765625 3.914062 -7.992188 3.261719 -8.039062 C 1.902344 -8.136719 1.171875 -7.324219 1.078125 -6.050781 L 0.773438 -1.835938 C 0.679688 -0.511719 1.289062 0.351562 2.644531 0.449219 C 3.445312 0.503906 4.054688 0.277344 4.414062 -0.242188 L 4.546875 0.328125 L 4.59375 0.332031 L 5.585938 0.402344 L 6.144531 0.445312 L 6.234375 -0.800781 L 5.675781 -0.839844 L 6.300781 -9.519531 L 6.394531 -10.765625 L 4.957031 -10.867188 L 4.398438 -10.910156 Z M 4.527344 -4.933594 L 4.347656 -2.445312 L 4.296875 -1.742188 C 4.253906 -1.167969 3.964844 -0.707031 3.183594 -0.765625 C 2.433594 -0.820312 2.179688 -1.285156 2.222656 -1.890625 L 2.503906 -5.785156 C 2.542969 -6.34375 2.867188 -6.816406 3.617188 -6.761719 C 4.351562 -6.710938 4.621094 -6.210938 4.578125 -5.636719 Z M 4.527344 -4.933594 "/></g></g></g><g fill="#302f2f" fill-opacity="1"><g transform="translate(186.646258, 297.080617)"><g><path d="M 3.292969 -8.1875 C 1.691406 -8.222656 0.792969 -7.359375 0.765625 -5.9375 L 0.683594 -2.035156 C 0.652344 -0.609375 1.515625 0.289062 3.113281 0.320312 C 4.710938 0.355469 5.609375 -0.507812 5.640625 -1.929688 L 5.652344 -2.488281 L 4.214844 -2.519531 L 4.199219 -1.769531 C 4.183594 -1.191406 3.871094 -0.71875 3.136719 -0.734375 C 2.398438 -0.75 2.105469 -1.234375 2.117188 -1.8125 L 2.152344 -3.441406 L 5.671875 -3.371094 L 5.722656 -5.832031 C 5.753906 -7.257812 4.890625 -8.152344 3.292969 -8.1875 Z M 2.175781 -4.484375 L 2.207031 -6.097656 C 2.21875 -6.675781 2.535156 -7.148438 3.269531 -7.132812 C 4.003906 -7.117188 4.300781 -6.628906 4.285156 -6.054688 L 4.253906 -4.4375 Z M 2.175781 -4.484375 "/></g></g></g><g fill="#302f2f" fill-opacity="1"><g transform="translate(193.059341, 297.18094)"><g/></g></g><g fill="#302f2f" fill-opacity="1"><g transform="translate(196.230054, 297.167961)"><g><path d="M 2.925781 -11.644531 C 0.976562 -11.53125 0.0351562 -10.371094 0.136719 -8.613281 L 0.171875 -8.023438 L 1.769531 -8.117188 L 1.738281 -8.625 C 1.683594 -9.601562 2.082031 -10.183594 3.007812 -10.238281 C 3.933594 -10.292969 4.398438 -9.757812 4.453125 -8.785156 L 4.511719 -7.8125 C 4.539062 -7.347656 4.324219 -6.917969 3.9375 -6.671875 L 1.53125 -5.089844 C 0.820312 -4.613281 0.421875 -3.773438 0.46875 -2.929688 L 0.640625 -0.0390625 L 5.160156 -0.300781 L 6.546875 -0.382812 L 6.464844 -1.789062 L 6.398438 -2.96875 L 5.007812 -2.886719 L 5.078125 -1.707031 L 2.152344 -1.535156 L 2.066406 -3.039062 C 2.039062 -3.46875 2.242188 -3.863281 2.597656 -4.109375 L 5.035156 -5.710938 C 5.742188 -6.183594 6.160156 -7.011719 6.109375 -7.855469 L 6.046875 -8.957031 C 5.945312 -10.714844 4.875 -11.757812 2.925781 -11.644531 Z M 2.925781 -11.644531 "/></g></g></g><g fill="#302f2f" fill-opacity="1"><g transform="translate(203.691071, 296.724085)"><g><path d="M 2.234375 -11.796875 C 0.296875 -11.566406 -0.574219 -10.355469 -0.371094 -8.605469 L 0.332031 -2.664062 C 0.535156 -0.917969 1.667969 0.0625 3.605469 -0.167969 C 5.542969 -0.394531 6.414062 -1.609375 6.207031 -3.355469 L 5.507812 -9.300781 C 5.304688 -11.046875 4.171875 -12.023438 2.234375 -11.796875 Z M 2.398438 -10.398438 C 3.320312 -10.507812 3.816406 -10 3.929688 -9.03125 L 4.609375 -3.25 C 4.726562 -2.28125 4.363281 -1.671875 3.441406 -1.566406 C 2.519531 -1.457031 2.023438 -1.960938 1.910156 -2.929688 L 1.230469 -8.714844 C 1.113281 -9.683594 1.476562 -10.289062 2.398438 -10.398438 Z M 2.398438 -10.398438 "/></g></g></g><g fill="#302f2f" fill-opacity="1"><g transform="translate(211.113024, 295.841843)"><g><path d="M 1.535156 -11.90625 C -0.386719 -11.566406 -1.183594 -10.300781 -0.875 -8.570312 L -0.773438 -7.988281 L 0.804688 -8.265625 L 0.714844 -8.769531 C 0.542969 -9.730469 0.871094 -10.359375 1.78125 -10.523438 C 2.695312 -10.683594 3.21875 -10.207031 3.390625 -9.246094 L 3.5625 -8.289062 C 3.644531 -7.832031 3.480469 -7.378906 3.125 -7.089844 L 0.921875 -5.234375 C 0.273438 -4.679688 -0.0273438 -3.796875 0.121094 -2.960938 L 0.628906 -0.113281 L 5.085938 -0.90625 L 6.457031 -1.148438 L 6.210938 -2.535156 L 6.003906 -3.699219 L 4.632812 -3.457031 L 4.839844 -2.292969 L 1.957031 -1.777344 L 1.695312 -3.257812 C 1.617188 -3.683594 1.773438 -4.101562 2.09375 -4.386719 L 4.328125 -6.261719 C 4.976562 -6.816406 5.292969 -7.6875 5.144531 -8.519531 L 4.953125 -9.605469 C 4.644531 -11.339844 3.457031 -12.25 1.535156 -11.90625 Z M 1.535156 -11.90625 "/></g></g></g><g fill="#302f2f" fill-opacity="1"><g transform="translate(218.470173, 294.524267)"><g><path d="M 0.832031 -11.976562 C -1.066406 -11.523438 -1.789062 -10.214844 -1.378906 -8.503906 L 0.015625 -2.683594 C 0.425781 -0.972656 1.660156 -0.136719 3.558594 -0.589844 C 5.457031 -1.042969 6.179688 -2.351562 5.769531 -4.0625 L 4.378906 -9.882812 C 3.96875 -11.59375 2.730469 -12.433594 0.832031 -11.976562 Z M 1.160156 -10.609375 C 2.0625 -10.824219 2.613281 -10.378906 2.839844 -9.429688 L 4.195312 -3.769531 C 4.425781 -2.820312 4.132812 -2.175781 3.230469 -1.957031 C 2.328125 -1.742188 1.78125 -2.1875 1.550781 -3.136719 L 0.195312 -8.796875 C -0.03125 -9.746094 0.257812 -10.390625 1.160156 -10.609375 Z M 1.160156 -10.609375 "/></g></g></g></svg>